<?xml version="1.0" encoding="utf-8" standalone="no"?>
<!DOCTYPE svg PUBLIC "-//W3C//DTD SVG 1.1//EN"
  "http://www.w3.org/Graphics/SVG/1.1/DTD/svg11.dtd">
<svg height="345.6pt" version="1.1" viewBox="0 0 460.8 345.6" width="460.8pt" xmlns="http://www.w3.org/2000/svg" xmlns:xlink="http://www.w3.org/1999/xlink">
 <metadata>
  <rdf:RDF xmlns:cc="http://creativecommons.org/ns#" xmlns:dc="http://purl.org/dc/elements/1.1/" xmlns:rdf="http://www.w3.org/1999/02/22-rdf-syntax-ns#">
   <cc:Work>
    <dc:type rdf:resource="http://purl.org/dc/dcmitype/StillImage"/>
    <dc:date>2021-05-16T12:32:40.328931</dc:date>
    <dc:format>image/svg+xml</dc:format>
    <dc:creator>
     <cc:Agent>
      <dc:title>Matplotlib v3.4.2, https://matplotlib.org/</dc:title>
     </cc:Agent>
    </dc:creator>
   </cc:Work>
  </rdf:RDF>
 </metadata>
 <defs>
  <style type="text/css">*{stroke-linecap:butt;stroke-linejoin:round;}</style>
 </defs>
 <g id="figure_1">
  <g id="patch_1">
   <path d="M 0 345.6 
L 460.8 345.6 
L 460.8 0 
L 0 0 
z
" style="fill:none;"/>
  </g>
  <g id="axes_1">
   <g id="patch_2">
    <path d="M 57.6 307.584 
L 414.72 307.584 
L 414.72 41.472 
L 57.6 41.472 
z
" style="fill:none;"/>
   </g>
   <g id="PathCollection_1">
    <defs>
     <path d="M 0 3 
C 0.795609 3 1.55874 2.683901 2.12132 2.12132 
C 2.683901 1.55874 3 0.795609 3 0 
C 3 -0.795609 2.683901 -1.55874 2.12132 -2.12132 
C 1.55874 -2.683901 0.795609 -3 0 -3 
C -0.795609 -3 -1.55874 -2.683901 -2.12132 -2.12132 
C -2.683901 -1.55874 -3 -0.795609 -3 0 
C -3 0.795609 -2.683901 1.55874 -2.12132 2.12132 
C -1.55874 2.683901 -0.795609 3 0 3 
z
" id="mfe9d964bee" style="stroke:#1f77b4;"/>
    </defs>
    <g clip-path="url(#pee53311b7d)">
     <use style="fill:#1f77b4;stroke:#1f77b4;" x="147.697614" xlink:href="#mfe9d964bee" y="152.370156"/>
     <use style="fill:#1f77b4;stroke:#1f77b4;" x="162.512262" xlink:href="#mfe9d964bee" y="168.082151"/>
     <use style="fill:#1f77b4;stroke:#1f77b4;" x="147.104974" xlink:href="#mfe9d964bee" y="180.489539"/>
     <use style="fill:#1f77b4;stroke:#1f77b4;" x="140.673174" xlink:href="#mfe9d964bee" y="197.092011"/>
     <use style="fill:#1f77b4;stroke:#1f77b4;" x="328.374626" xlink:href="#mfe9d964bee" y="162.43857"/>
     <use style="fill:#1f77b4;stroke:#1f77b4;" x="154.119077" xlink:href="#mfe9d964bee" y="209.256766"/>
     <use style="fill:#1f77b4;stroke:#1f77b4;" x="256.570539" xlink:href="#mfe9d964bee" y="118.559761"/>
     <use style="fill:#1f77b4;stroke:#1f77b4;" x="127.200089" xlink:href="#mfe9d964bee" y="149.411626"/>
     <use style="fill:#1f77b4;stroke:#1f77b4;" x="354.782658" xlink:href="#mfe9d964bee" y="142.987427"/>
     <use style="fill:#1f77b4;stroke:#1f77b4;" x="146.675611" xlink:href="#mfe9d964bee" y="183.170445"/>
     <use style="fill:#1f77b4;stroke:#1f77b4;" x="333.535421" xlink:href="#mfe9d964bee" y="171.427924"/>
     <use style="fill:#1f77b4;stroke:#1f77b4;" x="131.721656" xlink:href="#mfe9d964bee" y="208.686323"/>
     <use style="fill:#1f77b4;stroke:#1f77b4;" x="340.757024" xlink:href="#mfe9d964bee" y="167.465344"/>
     <use style="fill:#1f77b4;stroke:#1f77b4;" x="287.034234" xlink:href="#mfe9d964bee" y="224.348633"/>
     <use style="fill:#1f77b4;stroke:#1f77b4;" x="398.487273" xlink:href="#mfe9d964bee" y="120.938299"/>
     <use style="fill:#1f77b4;stroke:#1f77b4;" x="214.722345" xlink:href="#mfe9d964bee" y="157.711694"/>
     <use style="fill:#1f77b4;stroke:#1f77b4;" x="225.361067" xlink:href="#mfe9d964bee" y="221.874546"/>
     <use style="fill:#1f77b4;stroke:#1f77b4;" x="372.691818" xlink:href="#mfe9d964bee" y="150.564213"/>
     <use style="fill:#1f77b4;stroke:#1f77b4;" x="295.304187" xlink:href="#mfe9d964bee" y="188.459438"/>
     <use style="fill:#1f77b4;stroke:#1f77b4;" x="336.705736" xlink:href="#mfe9d964bee" y="215.983537"/>
     <use style="fill:#1f77b4;stroke:#1f77b4;" x="325.543626" xlink:href="#mfe9d964bee" y="198.455876"/>
     <use style="fill:#1f77b4;stroke:#1f77b4;" x="255.635077" xlink:href="#mfe9d964bee" y="192.840014"/>
     <use style="fill:#1f77b4;stroke:#1f77b4;" x="363.176873" xlink:href="#mfe9d964bee" y="174.532934"/>
     <use style="fill:#1f77b4;stroke:#1f77b4;" x="155.441964" xlink:href="#mfe9d964bee" y="120.624821"/>
     <use style="fill:#1f77b4;stroke:#1f77b4;" x="244.493123" xlink:href="#mfe9d964bee" y="204.122487"/>
     <use style="fill:#1f77b4;stroke:#1f77b4;" x="269.454501" xlink:href="#mfe9d964bee" y="193.95166"/>
     <use style="fill:#1f77b4;stroke:#1f77b4;" x="197.533114" xlink:href="#mfe9d964bee" y="131.627734"/>
     <use style="fill:#1f77b4;stroke:#1f77b4;" x="334.163856" xlink:href="#mfe9d964bee" y="139.930374"/>
     <use style="fill:#1f77b4;stroke:#1f77b4;" x="303.951115" xlink:href="#mfe9d964bee" y="118.974911"/>
     <use style="fill:#1f77b4;stroke:#1f77b4;" x="361.615273" xlink:href="#mfe9d964bee" y="160.374878"/>
     <use style="fill:#1f77b4;stroke:#1f77b4;" x="202.702986" xlink:href="#mfe9d964bee" y="104.592889"/>
     <use style="fill:#1f77b4;stroke:#1f77b4;" x="258.629811" xlink:href="#mfe9d964bee" y="157.525645"/>
     <use style="fill:#1f77b4;stroke:#1f77b4;" x="337.00585" xlink:href="#mfe9d964bee" y="151.414117"/>
     <use style="fill:#1f77b4;stroke:#1f77b4;" x="163.699966" xlink:href="#mfe9d964bee" y="224.576476"/>
     <use style="fill:#1f77b4;stroke:#1f77b4;" x="251.042693" xlink:href="#mfe9d964bee" y="139.269188"/>
     <use style="fill:#1f77b4;stroke:#1f77b4;" x="264.873908" xlink:href="#mfe9d964bee" y="196.794746"/>
     <use style="fill:#1f77b4;stroke:#1f77b4;" x="396.573572" xlink:href="#mfe9d964bee" y="164.550147"/>
     <use style="fill:#1f77b4;stroke:#1f77b4;" x="347.821778" xlink:href="#mfe9d964bee" y="240.898589"/>
     <use style="fill:#1f77b4;stroke:#1f77b4;" x="292.020606" xlink:href="#mfe9d964bee" y="165.87835"/>
     <use style="fill:#1f77b4;stroke:#1f77b4;" x="113.329826" xlink:href="#mfe9d964bee" y="159.350411"/>
     <use style="fill:#1f77b4;stroke:#1f77b4;" x="313.767171" xlink:href="#mfe9d964bee" y="215.84999"/>
     <use style="fill:#1f77b4;stroke:#1f77b4;" x="241.607308" xlink:href="#mfe9d964bee" y="151.731892"/>
     <use style="fill:#1f77b4;stroke:#1f77b4;" x="124.147059" xlink:href="#mfe9d964bee" y="182.802194"/>
     <use style="fill:#1f77b4;stroke:#1f77b4;" x="152.485254" xlink:href="#mfe9d964bee" y="184.52563"/>
     <use style="fill:#1f77b4;stroke:#1f77b4;" x="143.113407" xlink:href="#mfe9d964bee" y="53.568"/>
     <use style="fill:#1f77b4;stroke:#1f77b4;" x="159.426022" xlink:href="#mfe9d964bee" y="107.195505"/>
     <use style="fill:#1f77b4;stroke:#1f77b4;" x="270.220393" xlink:href="#mfe9d964bee" y="207.94963"/>
     <use style="fill:#1f77b4;stroke:#1f77b4;" x="331.57958" xlink:href="#mfe9d964bee" y="183.829487"/>
     <use style="fill:#1f77b4;stroke:#1f77b4;" x="324.200936" xlink:href="#mfe9d964bee" y="73.701289"/>
     <use style="fill:#1f77b4;stroke:#1f77b4;" x="208.770838" xlink:href="#mfe9d964bee" y="179.012608"/>
     <use style="fill:#1f77b4;stroke:#1f77b4;" x="317.157371" xlink:href="#mfe9d964bee" y="176.202332"/>
     <use style="fill:#1f77b4;stroke:#1f77b4;" x="73.832727" xlink:href="#mfe9d964bee" y="160.96361"/>
     <use style="fill:#1f77b4;stroke:#1f77b4;" x="230.836902" xlink:href="#mfe9d964bee" y="189.287794"/>
     <use style="fill:#1f77b4;stroke:#1f77b4;" x="352.937931" xlink:href="#mfe9d964bee" y="237.66386"/>
     <use style="fill:#1f77b4;stroke:#1f77b4;" x="348.002877" xlink:href="#mfe9d964bee" y="112.177062"/>
     <use style="fill:#1f77b4;stroke:#1f77b4;" x="351.401703" xlink:href="#mfe9d964bee" y="122.199651"/>
     <use style="fill:#1f77b4;stroke:#1f77b4;" x="177.416381" xlink:href="#mfe9d964bee" y="151.555552"/>
     <use style="fill:#1f77b4;stroke:#1f77b4;" x="194.760662" xlink:href="#mfe9d964bee" y="128.801137"/>
     <use style="fill:#1f77b4;stroke:#1f77b4;" x="249.802869" xlink:href="#mfe9d964bee" y="208.597304"/>
     <use style="fill:#1f77b4;stroke:#1f77b4;" x="206.326301" xlink:href="#mfe9d964bee" y="133.732985"/>
     <use style="fill:#1f77b4;stroke:#1f77b4;" x="235.958235" xlink:href="#mfe9d964bee" y="141.224293"/>
     <use style="fill:#1f77b4;stroke:#1f77b4;" x="234.152028" xlink:href="#mfe9d964bee" y="187.174183"/>
     <use style="fill:#1f77b4;stroke:#1f77b4;" x="157.82516" xlink:href="#mfe9d964bee" y="131.927912"/>
     <use style="fill:#1f77b4;stroke:#1f77b4;" x="212.609363" xlink:href="#mfe9d964bee" y="109.398155"/>
     <use style="fill:#1f77b4;stroke:#1f77b4;" x="306.062313" xlink:href="#mfe9d964bee" y="133.722514"/>
     <use style="fill:#1f77b4;stroke:#1f77b4;" x="123.53205" xlink:href="#mfe9d964bee" y="180.017009"/>
     <use style="fill:#1f77b4;stroke:#1f77b4;" x="343.475924" xlink:href="#mfe9d964bee" y="86.225672"/>
     <use style="fill:#1f77b4;stroke:#1f77b4;" x="115.959987" xlink:href="#mfe9d964bee" y="124.762958"/>
     <use style="fill:#1f77b4;stroke:#1f77b4;" x="93.398531" xlink:href="#mfe9d964bee" y="195.189909"/>
     <use style="fill:#1f77b4;stroke:#1f77b4;" x="320.176941" xlink:href="#mfe9d964bee" y="174.411932"/>
     <use style="fill:#1f77b4;stroke:#1f77b4;" x="250.421432" xlink:href="#mfe9d964bee" y="141.593311"/>
     <use style="fill:#1f77b4;stroke:#1f77b4;" x="356.860173" xlink:href="#mfe9d964bee" y="90.002984"/>
     <use style="fill:#1f77b4;stroke:#1f77b4;" x="159.770251" xlink:href="#mfe9d964bee" y="104.908886"/>
     <use style="fill:#1f77b4;stroke:#1f77b4;" x="326.153499" xlink:href="#mfe9d964bee" y="149.524609"/>
     <use style="fill:#1f77b4;stroke:#1f77b4;" x="213.351501" xlink:href="#mfe9d964bee" y="126.751933"/>
     <use style="fill:#1f77b4;stroke:#1f77b4;" x="263.821863" xlink:href="#mfe9d964bee" y="191.677429"/>
     <use style="fill:#1f77b4;stroke:#1f77b4;" x="138.297067" xlink:href="#mfe9d964bee" y="295.488"/>
     <use style="fill:#1f77b4;stroke:#1f77b4;" x="194.347418" xlink:href="#mfe9d964bee" y="208.252303"/>
     <use style="fill:#1f77b4;stroke:#1f77b4;" x="379.814067" xlink:href="#mfe9d964bee" y="113.804029"/>
     <use style="fill:#1f77b4;stroke:#1f77b4;" x="251.935046" xlink:href="#mfe9d964bee" y="118.336688"/>
     <use style="fill:#1f77b4;stroke:#1f77b4;" x="123.830666" xlink:href="#mfe9d964bee" y="99.189749"/>
     <use style="fill:#1f77b4;stroke:#1f77b4;" x="91.611233" xlink:href="#mfe9d964bee" y="173.515201"/>
     <use style="fill:#1f77b4;stroke:#1f77b4;" x="356.400532" xlink:href="#mfe9d964bee" y="231.122001"/>
     <use style="fill:#1f77b4;stroke:#1f77b4;" x="355.894127" xlink:href="#mfe9d964bee" y="177.421666"/>
     <use style="fill:#1f77b4;stroke:#1f77b4;" x="189.417173" xlink:href="#mfe9d964bee" y="216.875788"/>
     <use style="fill:#1f77b4;stroke:#1f77b4;" x="351.810526" xlink:href="#mfe9d964bee" y="239.6838"/>
     <use style="fill:#1f77b4;stroke:#1f77b4;" x="281.97443" xlink:href="#mfe9d964bee" y="190.089199"/>
     <use style="fill:#1f77b4;stroke:#1f77b4;" x="308.668547" xlink:href="#mfe9d964bee" y="118.538653"/>
     <use style="fill:#1f77b4;stroke:#1f77b4;" x="251.283087" xlink:href="#mfe9d964bee" y="157.596053"/>
     <use style="fill:#1f77b4;stroke:#1f77b4;" x="258.944366" xlink:href="#mfe9d964bee" y="164.08465"/>
     <use style="fill:#1f77b4;stroke:#1f77b4;" x="342.243424" xlink:href="#mfe9d964bee" y="110.657948"/>
     <use style="fill:#1f77b4;stroke:#1f77b4;" x="149.895743" xlink:href="#mfe9d964bee" y="181.468494"/>
     <use style="fill:#1f77b4;stroke:#1f77b4;" x="169.813913" xlink:href="#mfe9d964bee" y="206.61862"/>
     <use style="fill:#1f77b4;stroke:#1f77b4;" x="150.791832" xlink:href="#mfe9d964bee" y="118.960268"/>
     <use style="fill:#1f77b4;stroke:#1f77b4;" x="251.362533" xlink:href="#mfe9d964bee" y="120.311801"/>
     <use style="fill:#1f77b4;stroke:#1f77b4;" x="190.911794" xlink:href="#mfe9d964bee" y="173.796943"/>
     <use style="fill:#1f77b4;stroke:#1f77b4;" x="322.722201" xlink:href="#mfe9d964bee" y="138.618338"/>
     <use style="fill:#1f77b4;stroke:#1f77b4;" x="114.000693" xlink:href="#mfe9d964bee" y="164.666198"/>
     <use style="fill:#1f77b4;stroke:#1f77b4;" x="357.49323" xlink:href="#mfe9d964bee" y="180.507906"/>
     <use style="fill:#1f77b4;stroke:#1f77b4;" x="256.273176" xlink:href="#mfe9d964bee" y="72.224856"/>
    </g>
   </g>
   <g id="matplotlib.axis_1">
    <g id="xtick_1">
     <g id="line2d_1">
      <defs>
       <path d="M 0 0 
L 0 3.5 
" id="m672d8c1470" style="stroke:#000000;stroke-width:0.8;"/>
      </defs>
      <g>
       <use style="stroke:#000000;stroke-width:0.8;" x="106.26268" xlink:href="#m672d8c1470" y="307.584"/>
      </g>
     </g>
     <g id="text_1">
      <!-- −4 -->
      <g transform="translate(98.891587 322.182437)scale(0.1 -0.1)">
       <defs>
        <path d="M 678 2272 
L 4684 2272 
L 4684 1741 
L 678 1741 
L 678 2272 
z
" id="DejaVuSans-2212" transform="scale(0.015625)"/>
        <path d="M 2419 4116 
L 825 1625 
L 2419 1625 
L 2419 4116 
z
M 2253 4666 
L 3047 4666 
L 3047 1625 
L 3713 1625 
L 3713 1100 
L 3047 1100 
L 3047 0 
L 2419 0 
L 2419 1100 
L 313 1100 
L 313 1709 
L 2253 4666 
z
" id="DejaVuSans-34" transform="scale(0.015625)"/>
       </defs>
       <use xlink:href="#DejaVuSans-2212"/>
       <use x="83.789062" xlink:href="#DejaVuSans-34"/>
      </g>
     </g>
    </g>
    <g id="xtick_2">
     <g id="line2d_2">
      <g>
       <use style="stroke:#000000;stroke-width:0.8;" x="174.386551" xlink:href="#m672d8c1470" y="307.584"/>
      </g>
     </g>
     <g id="text_2">
      <!-- −2 -->
      <g transform="translate(167.015457 322.182437)scale(0.1 -0.1)">
       <defs>
        <path d="M 1228 531 
L 3431 531 
L 3431 0 
L 469 0 
L 469 531 
Q 828 903 1448 1529 
Q 2069 2156 2228 2338 
Q 2531 2678 2651 2914 
Q 2772 3150 2772 3378 
Q 2772 3750 2511 3984 
Q 2250 4219 1831 4219 
Q 1534 4219 1204 4116 
Q 875 4013 500 3803 
L 500 4441 
Q 881 4594 1212 4672 
Q 1544 4750 1819 4750 
Q 2544 4750 2975 4387 
Q 3406 4025 3406 3419 
Q 3406 3131 3298 2873 
Q 3191 2616 2906 2266 
Q 2828 2175 2409 1742 
Q 1991 1309 1228 531 
z
" id="DejaVuSans-32" transform="scale(0.015625)"/>
       </defs>
       <use xlink:href="#DejaVuSans-2212"/>
       <use x="83.789062" xlink:href="#DejaVuSans-32"/>
      </g>
     </g>
    </g>
    <g id="xtick_3">
     <g id="line2d_3">
      <g>
       <use style="stroke:#000000;stroke-width:0.8;" x="242.510422" xlink:href="#m672d8c1470" y="307.584"/>
      </g>
     </g>
     <g id="text_3">
      <!-- 0 -->
      <g transform="translate(239.329172 322.182437)scale(0.1 -0.1)">
       <defs>
        <path d="M 2034 4250 
Q 1547 4250 1301 3770 
Q 1056 3291 1056 2328 
Q 1056 1369 1301 889 
Q 1547 409 2034 409 
Q 2525 409 2770 889 
Q 3016 1369 3016 2328 
Q 3016 3291 2770 3770 
Q 2525 4250 2034 4250 
z
M 2034 4750 
Q 2819 4750 3233 4129 
Q 3647 3509 3647 2328 
Q 3647 1150 3233 529 
Q 2819 -91 2034 -91 
Q 1250 -91 836 529 
Q 422 1150 422 2328 
Q 422 3509 836 4129 
Q 1250 4750 2034 4750 
z
" id="DejaVuSans-30" transform="scale(0.015625)"/>
       </defs>
       <use xlink:href="#DejaVuSans-30"/>
      </g>
     </g>
    </g>
    <g id="xtick_4">
     <g id="line2d_4">
      <g>
       <use style="stroke:#000000;stroke-width:0.8;" x="310.634293" xlink:href="#m672d8c1470" y="307.584"/>
      </g>
     </g>
     <g id="text_4">
      <!-- 2 -->
      <g transform="translate(307.453043 322.182437)scale(0.1 -0.1)">
       <use xlink:href="#DejaVuSans-32"/>
      </g>
     </g>
    </g>
    <g id="xtick_5">
     <g id="line2d_5">
      <g>
       <use style="stroke:#000000;stroke-width:0.8;" x="378.758163" xlink:href="#m672d8c1470" y="307.584"/>
      </g>
     </g>
     <g id="text_5">
      <!-- 4 -->
      <g transform="translate(375.576913 322.182437)scale(0.1 -0.1)">
       <use xlink:href="#DejaVuSans-34"/>
      </g>
     </g>
    </g>
   </g>
   <g id="matplotlib.axis_2">
    <g id="ytick_1">
     <g id="line2d_6">
      <defs>
       <path d="M 0 0 
L -3.5 0 
" id="mff49c1ac7c" style="stroke:#000000;stroke-width:0.8;"/>
      </defs>
      <g>
       <use style="stroke:#000000;stroke-width:0.8;" x="57.6" xlink:href="#mff49c1ac7c" y="284.982569"/>
      </g>
     </g>
     <g id="text_6">
      <!-- −3 -->
      <g transform="translate(35.857813 288.781788)scale(0.1 -0.1)">
       <defs>
        <path d="M 2597 2516 
Q 3050 2419 3304 2112 
Q 3559 1806 3559 1356 
Q 3559 666 3084 287 
Q 2609 -91 1734 -91 
Q 1441 -91 1130 -33 
Q 819 25 488 141 
L 488 750 
Q 750 597 1062 519 
Q 1375 441 1716 441 
Q 2309 441 2620 675 
Q 2931 909 2931 1356 
Q 2931 1769 2642 2001 
Q 2353 2234 1838 2234 
L 1294 2234 
L 1294 2753 
L 1863 2753 
Q 2328 2753 2575 2939 
Q 2822 3125 2822 3475 
Q 2822 3834 2567 4026 
Q 2313 4219 1838 4219 
Q 1578 4219 1281 4162 
Q 984 4106 628 3988 
L 628 4550 
Q 988 4650 1302 4700 
Q 1616 4750 1894 4750 
Q 2613 4750 3031 4423 
Q 3450 4097 3450 3541 
Q 3450 3153 3228 2886 
Q 3006 2619 2597 2516 
z
" id="DejaVuSans-33" transform="scale(0.015625)"/>
       </defs>
       <use xlink:href="#DejaVuSans-2212"/>
       <use x="83.789062" xlink:href="#DejaVuSans-33"/>
      </g>
     </g>
    </g>
    <g id="ytick_2">
     <g id="line2d_7">
      <g>
       <use style="stroke:#000000;stroke-width:0.8;" x="57.6" xlink:href="#mff49c1ac7c" y="241.439872"/>
      </g>
     </g>
     <g id="text_7">
      <!-- −2 -->
      <g transform="translate(35.857813 245.239091)scale(0.1 -0.1)">
       <use xlink:href="#DejaVuSans-2212"/>
       <use x="83.789062" xlink:href="#DejaVuSans-32"/>
      </g>
     </g>
    </g>
    <g id="ytick_3">
     <g id="line2d_8">
      <g>
       <use style="stroke:#000000;stroke-width:0.8;" x="57.6" xlink:href="#mff49c1ac7c" y="197.897175"/>
      </g>
     </g>
     <g id="text_8">
      <!-- −1 -->
      <g transform="translate(35.857813 201.696393)scale(0.1 -0.1)">
       <defs>
        <path d="M 794 531 
L 1825 531 
L 1825 4091 
L 703 3866 
L 703 4441 
L 1819 4666 
L 2450 4666 
L 2450 531 
L 3481 531 
L 3481 0 
L 794 0 
L 794 531 
z
" id="DejaVuSans-31" transform="scale(0.015625)"/>
       </defs>
       <use xlink:href="#DejaVuSans-2212"/>
       <use x="83.789062" xlink:href="#DejaVuSans-31"/>
      </g>
     </g>
    </g>
    <g id="ytick_4">
     <g id="line2d_9">
      <g>
       <use style="stroke:#000000;stroke-width:0.8;" x="57.6" xlink:href="#mff49c1ac7c" y="154.354477"/>
      </g>
     </g>
     <g id="text_9">
      <!-- 0 -->
      <g transform="translate(44.2375 158.153696)scale(0.1 -0.1)">
       <use xlink:href="#DejaVuSans-30"/>
      </g>
     </g>
    </g>
    <g id="ytick_5">
     <g id="line2d_10">
      <g>
       <use style="stroke:#000000;stroke-width:0.8;" x="57.6" xlink:href="#mff49c1ac7c" y="110.81178"/>
      </g>
     </g>
     <g id="text_10">
      <!-- 1 -->
      <g transform="translate(44.2375 114.610999)scale(0.1 -0.1)">
       <use xlink:href="#DejaVuSans-31"/>
      </g>
     </g>
    </g>
    <g id="ytick_6">
     <g id="line2d_11">
      <g>
       <use style="stroke:#000000;stroke-width:0.8;" x="57.6" xlink:href="#mff49c1ac7c" y="67.269083"/>
      </g>
     </g>
     <g id="text_11">
      <!-- 2 -->
      <g transform="translate(44.2375 71.068301)scale(0.1 -0.1)">
       <use xlink:href="#DejaVuSans-32"/>
      </g>
     </g>
    </g>
   </g>
   <g id="patch_3">
    <path d="M 57.6 307.584 
L 57.6 41.472 
" style="fill:none;stroke:#000000;stroke-linecap:square;stroke-linejoin:miter;stroke-width:0.8;"/>
   </g>
   <g id="patch_4">
    <path d="M 414.72 307.584 
L 414.72 41.472 
" style="fill:none;stroke:#000000;stroke-linecap:square;stroke-linejoin:miter;stroke-width:0.8;"/>
   </g>
   <g id="patch_5">
    <path d="M 57.6 307.584 
L 414.72 307.584 
" style="fill:none;stroke:#000000;stroke-linecap:square;stroke-linejoin:miter;stroke-width:0.8;"/>
   </g>
   <g id="patch_6">
    <path d="M 57.6 41.472 
L 414.72 41.472 
" style="fill:none;stroke:#000000;stroke-linecap:square;stroke-linejoin:miter;stroke-width:0.8;"/>
   </g>
  </g>
 </g>
 <defs>
  <clipPath id="pee53311b7d">
   <rect height="266.112" width="357.12" x="57.6" y="41.472"/>
  </clipPath>
 </defs>
</svg>
