<?xml version="1.0" encoding="utf-8" standalone="no"?>
<!DOCTYPE svg PUBLIC "-//W3C//DTD SVG 1.1//EN"
  "http://www.w3.org/Graphics/SVG/1.1/DTD/svg11.dtd">
<svg height="345.6pt" version="1.1" viewBox="0 0 460.8 345.6" width="460.8pt" xmlns="http://www.w3.org/2000/svg" xmlns:xlink="http://www.w3.org/1999/xlink">
 <metadata>
  <rdf:RDF xmlns:cc="http://creativecommons.org/ns#" xmlns:dc="http://purl.org/dc/elements/1.1/" xmlns:rdf="http://www.w3.org/1999/02/22-rdf-syntax-ns#">
   <cc:Work>
    <dc:type rdf:resource="http://purl.org/dc/dcmitype/StillImage"/>
    <dc:date>2021-05-16T12:32:40.401932</dc:date>
    <dc:format>image/svg+xml</dc:format>
    <dc:creator>
     <cc:Agent>
      <dc:title>Matplotlib v3.4.2, https://matplotlib.org/</dc:title>
     </cc:Agent>
    </dc:creator>
   </cc:Work>
  </rdf:RDF>
 </metadata>
 <defs>
  <style type="text/css">*{stroke-linecap:butt;stroke-linejoin:round;}</style>
 </defs>
 <g id="figure_1">
  <g id="patch_1">
   <path d="M 0 345.6 
L 460.8 345.6 
L 460.8 0 
L 0 0 
z
" style="fill:none;"/>
  </g>
  <g id="axes_1">
   <g id="patch_2">
    <path d="M 57.6 307.584 
L 414.72 307.584 
L 414.72 41.472 
L 57.6 41.472 
z
" style="fill:none;"/>
   </g>
   <g id="PathCollection_1">
    <defs>
     <path d="M 0 3 
C 0.795609 3 1.55874 2.683901 2.12132 2.12132 
C 2.683901 1.55874 3 0.795609 3 0 
C 3 -0.795609 2.683901 -1.55874 2.12132 -2.12132 
C 1.55874 -2.683901 0.795609 -3 0 -3 
C -0.795609 -3 -1.55874 -2.683901 -2.12132 -2.12132 
C -2.683901 -1.55874 -3 -0.795609 -3 0 
C -3 0.795609 -2.683901 1.55874 -2.12132 2.12132 
C -1.55874 2.683901 -0.795609 3 0 3 
z
" id="m329e4659a1" style="stroke:#1f77b4;"/>
    </defs>
    <g clip-path="url(#p9562e01dd0)">
     <use style="fill:#1f77b4;stroke:#1f77b4;" x="265.895634" xlink:href="#m329e4659a1" y="272.952882"/>
     <use style="fill:#1f77b4;stroke:#1f77b4;" x="244.810274" xlink:href="#m329e4659a1" y="249.810273"/>
     <use style="fill:#1f77b4;stroke:#1f77b4;" x="228.159666" xlink:href="#m329e4659a1" y="261.117142"/>
     <use style="fill:#1f77b4;stroke:#1f77b4;" x="205.879292" xlink:href="#m329e4659a1" y="254.680822"/>
     <use style="fill:#1f77b4;stroke:#1f77b4;" x="252.38391" xlink:href="#m329e4659a1" y="198.380664"/>
     <use style="fill:#1f77b4;stroke:#1f77b4;" x="189.554297" xlink:href="#m329e4659a1" y="247.203388"/>
     <use style="fill:#1f77b4;stroke:#1f77b4;" x="311.268893" xlink:href="#m329e4659a1" y="67.07678"/>
     <use style="fill:#1f77b4;stroke:#1f77b4;" x="269.865957" xlink:href="#m329e4659a1" y="251.399061"/>
     <use style="fill:#1f77b4;stroke:#1f77b4;" x="278.487176" xlink:href="#m329e4659a1" y="180.145607"/>
     <use style="fill:#1f77b4;stroke:#1f77b4;" x="224.561914" xlink:href="#m329e4659a1" y="248.276847"/>
     <use style="fill:#1f77b4;stroke:#1f77b4;" x="240.320275" xlink:href="#m329e4659a1" y="204.240763"/>
     <use style="fill:#1f77b4;stroke:#1f77b4;" x="190.319827" xlink:href="#m329e4659a1" y="235.480083"/>
     <use style="fill:#1f77b4;stroke:#1f77b4;" x="245.638023" xlink:href="#m329e4659a1" y="204.486977"/>
     <use style="fill:#1f77b4;stroke:#1f77b4;" x="169.301142" xlink:href="#m329e4659a1" y="95.167439"/>
     <use style="fill:#1f77b4;stroke:#1f77b4;" x="308.076914" xlink:href="#m329e4659a1" y="187.931966"/>
     <use style="fill:#1f77b4;stroke:#1f77b4;" x="258.727337" xlink:href="#m329e4659a1" y="92.599514"/>
     <use style="fill:#1f77b4;stroke:#1f77b4;" x="172.621346" xlink:href="#m329e4659a1" y="97.071764"/>
     <use style="fill:#1f77b4;stroke:#1f77b4;" x="268.319194" xlink:href="#m329e4659a1" y="185.135187"/>
     <use style="fill:#1f77b4;stroke:#1f77b4;" x="217.46413" xlink:href="#m329e4659a1" y="103.480573"/>
     <use style="fill:#1f77b4;stroke:#1f77b4;" x="180.527028" xlink:href="#m329e4659a1" y="187.130849"/>
     <use style="fill:#1f77b4;stroke:#1f77b4;" x="204.048997" xlink:href="#m329e4659a1" y="175.07378"/>
     <use style="fill:#1f77b4;stroke:#1f77b4;" x="211.585436" xlink:href="#m329e4659a1" y="95.674546"/>
     <use style="fill:#1f77b4;stroke:#1f77b4;" x="236.153379" xlink:href="#m329e4659a1" y="187.87053"/>
     <use style="fill:#1f77b4;stroke:#1f77b4;" x="308.497599" xlink:href="#m329e4659a1" y="277.470105"/>
     <use style="fill:#1f77b4;stroke:#1f77b4;" x="196.444455" xlink:href="#m329e4659a1" y="92.326584"/>
     <use style="fill:#1f77b4;stroke:#1f77b4;" x="210.093616" xlink:href="#m329e4659a1" y="75.181604"/>
     <use style="fill:#1f77b4;stroke:#1f77b4;" x="293.731786" xlink:href="#m329e4659a1" y="93.324148"/>
     <use style="fill:#1f77b4;stroke:#1f77b4;" x="282.589715" xlink:href="#m329e4659a1" y="164.224151"/>
     <use style="fill:#1f77b4;stroke:#1f77b4;" x="310.711764" xlink:href="#m329e4659a1" y="157.978253"/>
     <use style="fill:#1f77b4;stroke:#1f77b4;" x="255.153367" xlink:href="#m329e4659a1" y="169.603154"/>
     <use style="fill:#1f77b4;stroke:#1f77b4;" x="330.012313" xlink:href="#m329e4659a1" y="85.860005"/>
     <use style="fill:#1f77b4;stroke:#1f77b4;" x="258.977014" xlink:href="#m329e4659a1" y="112.089629"/>
     <use style="fill:#1f77b4;stroke:#1f77b4;" x="267.178631" xlink:href="#m329e4659a1" y="203.604733"/>
     <use style="fill:#1f77b4;stroke:#1f77b4;" x="168.995378" xlink:href="#m329e4659a1" y="270.005138"/>
     <use style="fill:#1f77b4;stroke:#1f77b4;" x="283.477021" xlink:href="#m329e4659a1" y="109.353521"/>
     <use style="fill:#1f77b4;stroke:#1f77b4;" x="206.278219" xlink:href="#m329e4659a1" y="85.283289"/>
     <use style="fill:#1f77b4;stroke:#1f77b4;" x="249.550193" xlink:href="#m329e4659a1" y="184.070886"/>
     <use style="fill:#1f77b4;stroke:#1f77b4;" x="147.091244" xlink:href="#m329e4659a1" y="183.833564"/>
     <use style="fill:#1f77b4;stroke:#1f77b4;" x="247.767756" xlink:href="#m329e4659a1" y="53.568"/>
     <use style="fill:#1f77b4;stroke:#1f77b4;" x="256.528192" xlink:href="#m329e4659a1" y="253.977245"/>
     <use style="fill:#1f77b4;stroke:#1f77b4;" x="180.706247" xlink:href="#m329e4659a1" y="156.183231"/>
     <use style="fill:#1f77b4;stroke:#1f77b4;" x="266.75218" xlink:href="#m329e4659a1" y="57.783292"/>
     <use style="fill:#1f77b4;stroke:#1f77b4;" x="225.056103" xlink:href="#m329e4659a1" y="233.297305"/>
     <use style="fill:#1f77b4;stroke:#1f77b4;" x="222.743267" xlink:href="#m329e4659a1" y="247.503006"/>
     <use style="fill:#1f77b4;stroke:#1f77b4;" x="398.487273" xlink:href="#m329e4659a1" y="292.897773"/>
     <use style="fill:#1f77b4;stroke:#1f77b4;" x="326.519625" xlink:href="#m329e4659a1" y="244.973077"/>
     <use style="fill:#1f77b4;stroke:#1f77b4;" x="191.308462" xlink:href="#m329e4659a1" y="94.46481"/>
     <use style="fill:#1f77b4;stroke:#1f77b4;" x="223.677485" xlink:href="#m329e4659a1" y="170.193991"/>
     <use style="fill:#1f77b4;stroke:#1f77b4;" x="371.468573" xlink:href="#m329e4659a1" y="180.450945"/>
     <use style="fill:#1f77b4;stroke:#1f77b4;" x="230.141695" xlink:href="#m329e4659a1" y="96.561711"/>
     <use style="fill:#1f77b4;stroke:#1f77b4;" x="233.91306" xlink:href="#m329e4659a1" y="165.210892"/>
     <use style="fill:#1f77b4;stroke:#1f77b4;" x="254.363294" xlink:href="#m329e4659a1" y="252.610087"/>
     <use style="fill:#1f77b4;stroke:#1f77b4;" x="216.352485" xlink:href="#m329e4659a1" y="100.842793"/>
     <use style="fill:#1f77b4;stroke:#1f77b4;" x="151.432223" xlink:href="#m329e4659a1" y="208.529488"/>
     <use style="fill:#1f77b4;stroke:#1f77b4;" x="319.834419" xlink:href="#m329e4659a1" y="191.747785"/>
     <use style="fill:#1f77b4;stroke:#1f77b4;" x="306.384192" xlink:href="#m329e4659a1" y="177.417936"/>
     <use style="fill:#1f77b4;stroke:#1f77b4;" x="266.988826" xlink:href="#m329e4659a1" y="279.944451"/>
     <use style="fill:#1f77b4;stroke:#1f77b4;" x="297.525055" xlink:href="#m329e4659a1" y="62.258783"/>
     <use style="fill:#1f77b4;stroke:#1f77b4;" x="190.439289" xlink:href="#m329e4659a1" y="95.355343"/>
     <use style="fill:#1f77b4;stroke:#1f77b4;" x="290.906556" xlink:href="#m329e4659a1" y="113.281247"/>
     <use style="fill:#1f77b4;stroke:#1f77b4;" x="280.853287" xlink:href="#m329e4659a1" y="98.766149"/>
     <use style="fill:#1f77b4;stroke:#1f77b4;" x="219.188932" xlink:href="#m329e4659a1" y="112.790529"/>
     <use style="fill:#1f77b4;stroke:#1f77b4;" x="293.328949" xlink:href="#m329e4659a1" y="199.052243"/>
     <use style="fill:#1f77b4;stroke:#1f77b4;" x="323.563688" xlink:href="#m329e4659a1" y="287.190006"/>
     <use style="fill:#1f77b4;stroke:#1f77b4;" x="290.920609" xlink:href="#m329e4659a1" y="117.741853"/>
     <use style="fill:#1f77b4;stroke:#1f77b4;" x="228.793798" xlink:href="#m329e4659a1" y="248.323298"/>
     <use style="fill:#1f77b4;stroke:#1f77b4;" x="354.660959" xlink:href="#m329e4659a1" y="223.210535"/>
     <use style="fill:#1f77b4;stroke:#1f77b4;" x="302.944255" xlink:href="#m329e4659a1" y="274.245167"/>
     <use style="fill:#1f77b4;stroke:#1f77b4;" x="208.431897" xlink:href="#m329e4659a1" y="253.812392"/>
     <use style="fill:#1f77b4;stroke:#1f77b4;" x="236.315762" xlink:href="#m329e4659a1" y="162.885751"/>
     <use style="fill:#1f77b4;stroke:#1f77b4;" x="280.358067" xlink:href="#m329e4659a1" y="109.916705"/>
     <use style="fill:#1f77b4;stroke:#1f77b4;" x="349.591839" xlink:href="#m329e4659a1" y="188.732538"/>
     <use style="fill:#1f77b4;stroke:#1f77b4;" x="329.588248" xlink:href="#m329e4659a1" y="246.610458"/>
     <use style="fill:#1f77b4;stroke:#1f77b4;" x="269.714335" xlink:href="#m329e4659a1" y="199.113359"/>
     <use style="fill:#1f77b4;stroke:#1f77b4;" x="300.275068" xlink:href="#m329e4659a1" y="295.488"/>
     <use style="fill:#1f77b4;stroke:#1f77b4;" x="213.145614" xlink:href="#m329e4659a1" y="115.766321"/>
     <use style="fill:#1f77b4;stroke:#1f77b4;" x="73.832727" xlink:href="#m329e4659a1" y="279.069043"/>
     <use style="fill:#1f77b4;stroke:#1f77b4;" x="190.902277" xlink:href="#m329e4659a1" y="227.266592"/>
     <use style="fill:#1f77b4;stroke:#1f77b4;" x="317.651043" xlink:href="#m329e4659a1" y="193.998183"/>
     <use style="fill:#1f77b4;stroke:#1f77b4;" x="311.568255" xlink:href="#m329e4659a1" y="97.983331"/>
     <use style="fill:#1f77b4;stroke:#1f77b4;" x="337.263281" xlink:href="#m329e4659a1" y="273.872784"/>
     <use style="fill:#1f77b4;stroke:#1f77b4;" x="237.519167" xlink:href="#m329e4659a1" y="260.11735"/>
     <use style="fill:#1f77b4;stroke:#1f77b4;" x="160.21134" xlink:href="#m329e4659a1" y="174.912395"/>
     <use style="fill:#1f77b4;stroke:#1f77b4;" x="232.276726" xlink:href="#m329e4659a1" y="171.808543"/>
     <use style="fill:#1f77b4;stroke:#1f77b4;" x="179.329635" xlink:href="#m329e4659a1" y="243.178827"/>
     <use style="fill:#1f77b4;stroke:#1f77b4;" x="148.72148" xlink:href="#m329e4659a1" y="202.02048"/>
     <use style="fill:#1f77b4;stroke:#1f77b4;" x="215.277006" xlink:href="#m329e4659a1" y="82.390949"/>
     <use style="fill:#1f77b4;stroke:#1f77b4;" x="311.297219" xlink:href="#m329e4659a1" y="200.259359"/>
     <use style="fill:#1f77b4;stroke:#1f77b4;" x="258.882526" xlink:href="#m329e4659a1" y="129.677103"/>
     <use style="fill:#1f77b4;stroke:#1f77b4;" x="250.174886" xlink:href="#m329e4659a1" y="86.482348"/>
     <use style="fill:#1f77b4;stroke:#1f77b4;" x="321.873057" xlink:href="#m329e4659a1" y="174.296294"/>
     <use style="fill:#1f77b4;stroke:#1f77b4;" x="226.845917" xlink:href="#m329e4659a1" y="265.676927"/>
     <use style="fill:#1f77b4;stroke:#1f77b4;" x="193.094665" xlink:href="#m329e4659a1" y="267.750373"/>
     <use style="fill:#1f77b4;stroke:#1f77b4;" x="310.731415" xlink:href="#m329e4659a1" y="251.932305"/>
     <use style="fill:#1f77b4;stroke:#1f77b4;" x="308.91767" xlink:href="#m329e4659a1" y="118.490767"/>
     <use style="fill:#1f77b4;stroke:#1f77b4;" x="237.141073" xlink:href="#m329e4659a1" y="84.14608"/>
     <use style="fill:#1f77b4;stroke:#1f77b4;" x="284.350456" xlink:href="#m329e4659a1" y="154.995596"/>
     <use style="fill:#1f77b4;stroke:#1f77b4;" x="249.394453" xlink:href="#m329e4659a1" y="270.225506"/>
     <use style="fill:#1f77b4;stroke:#1f77b4;" x="228.135018" xlink:href="#m329e4659a1" y="185.015195"/>
     <use style="fill:#1f77b4;stroke:#1f77b4;" x="373.449934" xlink:href="#m329e4659a1" y="95.332425"/>
    </g>
   </g>
   <g id="matplotlib.axis_1">
    <g id="xtick_1">
     <g id="line2d_1">
      <defs>
       <path d="M 0 0 
L 0 3.5 
" id="m0970b8da79" style="stroke:#000000;stroke-width:0.8;"/>
      </defs>
      <g>
       <use style="stroke:#000000;stroke-width:0.8;" x="87.930924" xlink:href="#m0970b8da79" y="307.584"/>
      </g>
     </g>
     <g id="text_1">
      <!-- −3 -->
      <g transform="translate(80.559831 322.182437)scale(0.1 -0.1)">
       <defs>
        <path d="M 678 2272 
L 4684 2272 
L 4684 1741 
L 678 1741 
L 678 2272 
z
" id="DejaVuSans-2212" transform="scale(0.015625)"/>
        <path d="M 2597 2516 
Q 3050 2419 3304 2112 
Q 3559 1806 3559 1356 
Q 3559 666 3084 287 
Q 2609 -91 1734 -91 
Q 1441 -91 1130 -33 
Q 819 25 488 141 
L 488 750 
Q 750 597 1062 519 
Q 1375 441 1716 441 
Q 2309 441 2620 675 
Q 2931 909 2931 1356 
Q 2931 1769 2642 2001 
Q 2353 2234 1838 2234 
L 1294 2234 
L 1294 2753 
L 1863 2753 
Q 2328 2753 2575 2939 
Q 2822 3125 2822 3475 
Q 2822 3834 2567 4026 
Q 2313 4219 1838 4219 
Q 1578 4219 1281 4162 
Q 984 4106 628 3988 
L 628 4550 
Q 988 4650 1302 4700 
Q 1616 4750 1894 4750 
Q 2613 4750 3031 4423 
Q 3450 4097 3450 3541 
Q 3450 3153 3228 2886 
Q 3006 2619 2597 2516 
z
" id="DejaVuSans-33" transform="scale(0.015625)"/>
       </defs>
       <use xlink:href="#DejaVuSans-2212"/>
       <use x="83.789062" xlink:href="#DejaVuSans-33"/>
      </g>
     </g>
    </g>
    <g id="xtick_2">
     <g id="line2d_2">
      <g>
       <use style="stroke:#000000;stroke-width:0.8;" x="146.364847" xlink:href="#m0970b8da79" y="307.584"/>
      </g>
     </g>
     <g id="text_2">
      <!-- −2 -->
      <g transform="translate(138.993753 322.182437)scale(0.1 -0.1)">
       <defs>
        <path d="M 1228 531 
L 3431 531 
L 3431 0 
L 469 0 
L 469 531 
Q 828 903 1448 1529 
Q 2069 2156 2228 2338 
Q 2531 2678 2651 2914 
Q 2772 3150 2772 3378 
Q 2772 3750 2511 3984 
Q 2250 4219 1831 4219 
Q 1534 4219 1204 4116 
Q 875 4013 500 3803 
L 500 4441 
Q 881 4594 1212 4672 
Q 1544 4750 1819 4750 
Q 2544 4750 2975 4387 
Q 3406 4025 3406 3419 
Q 3406 3131 3298 2873 
Q 3191 2616 2906 2266 
Q 2828 2175 2409 1742 
Q 1991 1309 1228 531 
z
" id="DejaVuSans-32" transform="scale(0.015625)"/>
       </defs>
       <use xlink:href="#DejaVuSans-2212"/>
       <use x="83.789062" xlink:href="#DejaVuSans-32"/>
      </g>
     </g>
    </g>
    <g id="xtick_3">
     <g id="line2d_3">
      <g>
       <use style="stroke:#000000;stroke-width:0.8;" x="204.79877" xlink:href="#m0970b8da79" y="307.584"/>
      </g>
     </g>
     <g id="text_3">
      <!-- −1 -->
      <g transform="translate(197.427676 322.182437)scale(0.1 -0.1)">
       <defs>
        <path d="M 794 531 
L 1825 531 
L 1825 4091 
L 703 3866 
L 703 4441 
L 1819 4666 
L 2450 4666 
L 2450 531 
L 3481 531 
L 3481 0 
L 794 0 
L 794 531 
z
" id="DejaVuSans-31" transform="scale(0.015625)"/>
       </defs>
       <use xlink:href="#DejaVuSans-2212"/>
       <use x="83.789062" xlink:href="#DejaVuSans-31"/>
      </g>
     </g>
    </g>
    <g id="xtick_4">
     <g id="line2d_4">
      <g>
       <use style="stroke:#000000;stroke-width:0.8;" x="263.232693" xlink:href="#m0970b8da79" y="307.584"/>
      </g>
     </g>
     <g id="text_4">
      <!-- 0 -->
      <g transform="translate(260.051443 322.182437)scale(0.1 -0.1)">
       <defs>
        <path d="M 2034 4250 
Q 1547 4250 1301 3770 
Q 1056 3291 1056 2328 
Q 1056 1369 1301 889 
Q 1547 409 2034 409 
Q 2525 409 2770 889 
Q 3016 1369 3016 2328 
Q 3016 3291 2770 3770 
Q 2525 4250 2034 4250 
z
M 2034 4750 
Q 2819 4750 3233 4129 
Q 3647 3509 3647 2328 
Q 3647 1150 3233 529 
Q 2819 -91 2034 -91 
Q 1250 -91 836 529 
Q 422 1150 422 2328 
Q 422 3509 836 4129 
Q 1250 4750 2034 4750 
z
" id="DejaVuSans-30" transform="scale(0.015625)"/>
       </defs>
       <use xlink:href="#DejaVuSans-30"/>
      </g>
     </g>
    </g>
    <g id="xtick_5">
     <g id="line2d_5">
      <g>
       <use style="stroke:#000000;stroke-width:0.8;" x="321.666616" xlink:href="#m0970b8da79" y="307.584"/>
      </g>
     </g>
     <g id="text_5">
      <!-- 1 -->
      <g transform="translate(318.485366 322.182437)scale(0.1 -0.1)">
       <use xlink:href="#DejaVuSans-31"/>
      </g>
     </g>
    </g>
    <g id="xtick_6">
     <g id="line2d_6">
      <g>
       <use style="stroke:#000000;stroke-width:0.8;" x="380.100538" xlink:href="#m0970b8da79" y="307.584"/>
      </g>
     </g>
     <g id="text_6">
      <!-- 2 -->
      <g transform="translate(376.919288 322.182437)scale(0.1 -0.1)">
       <use xlink:href="#DejaVuSans-32"/>
      </g>
     </g>
    </g>
   </g>
   <g id="matplotlib.axis_2">
    <g id="ytick_1">
     <g id="line2d_7">
      <defs>
       <path d="M 0 0 
L -3.5 0 
" id="mef4a5d79d3" style="stroke:#000000;stroke-width:0.8;"/>
      </defs>
      <g>
       <use style="stroke:#000000;stroke-width:0.8;" x="57.6" xlink:href="#mef4a5d79d3" y="278.668926"/>
      </g>
     </g>
     <g id="text_7">
      <!-- −6 -->
      <g transform="translate(35.857813 282.468144)scale(0.1 -0.1)">
       <defs>
        <path d="M 2113 2584 
Q 1688 2584 1439 2293 
Q 1191 2003 1191 1497 
Q 1191 994 1439 701 
Q 1688 409 2113 409 
Q 2538 409 2786 701 
Q 3034 994 3034 1497 
Q 3034 2003 2786 2293 
Q 2538 2584 2113 2584 
z
M 3366 4563 
L 3366 3988 
Q 3128 4100 2886 4159 
Q 2644 4219 2406 4219 
Q 1781 4219 1451 3797 
Q 1122 3375 1075 2522 
Q 1259 2794 1537 2939 
Q 1816 3084 2150 3084 
Q 2853 3084 3261 2657 
Q 3669 2231 3669 1497 
Q 3669 778 3244 343 
Q 2819 -91 2113 -91 
Q 1303 -91 875 529 
Q 447 1150 447 2328 
Q 447 3434 972 4092 
Q 1497 4750 2381 4750 
Q 2619 4750 2861 4703 
Q 3103 4656 3366 4563 
z
" id="DejaVuSans-36" transform="scale(0.015625)"/>
       </defs>
       <use xlink:href="#DejaVuSans-2212"/>
       <use x="83.789062" xlink:href="#DejaVuSans-36"/>
      </g>
     </g>
    </g>
    <g id="ytick_2">
     <g id="line2d_8">
      <g>
       <use style="stroke:#000000;stroke-width:0.8;" x="57.6" xlink:href="#mef4a5d79d3" y="245.855784"/>
      </g>
     </g>
     <g id="text_8">
      <!-- −4 -->
      <g transform="translate(35.857813 249.655003)scale(0.1 -0.1)">
       <defs>
        <path d="M 2419 4116 
L 825 1625 
L 2419 1625 
L 2419 4116 
z
M 2253 4666 
L 3047 4666 
L 3047 1625 
L 3713 1625 
L 3713 1100 
L 3047 1100 
L 3047 0 
L 2419 0 
L 2419 1100 
L 313 1100 
L 313 1709 
L 2253 4666 
z
" id="DejaVuSans-34" transform="scale(0.015625)"/>
       </defs>
       <use xlink:href="#DejaVuSans-2212"/>
       <use x="83.789062" xlink:href="#DejaVuSans-34"/>
      </g>
     </g>
    </g>
    <g id="ytick_3">
     <g id="line2d_9">
      <g>
       <use style="stroke:#000000;stroke-width:0.8;" x="57.6" xlink:href="#mef4a5d79d3" y="213.042643"/>
      </g>
     </g>
     <g id="text_9">
      <!-- −2 -->
      <g transform="translate(35.857813 216.841862)scale(0.1 -0.1)">
       <use xlink:href="#DejaVuSans-2212"/>
       <use x="83.789062" xlink:href="#DejaVuSans-32"/>
      </g>
     </g>
    </g>
    <g id="ytick_4">
     <g id="line2d_10">
      <g>
       <use style="stroke:#000000;stroke-width:0.8;" x="57.6" xlink:href="#mef4a5d79d3" y="180.229501"/>
      </g>
     </g>
     <g id="text_10">
      <!-- 0 -->
      <g transform="translate(44.2375 184.02872)scale(0.1 -0.1)">
       <use xlink:href="#DejaVuSans-30"/>
      </g>
     </g>
    </g>
    <g id="ytick_5">
     <g id="line2d_11">
      <g>
       <use style="stroke:#000000;stroke-width:0.8;" x="57.6" xlink:href="#mef4a5d79d3" y="147.41636"/>
      </g>
     </g>
     <g id="text_11">
      <!-- 2 -->
      <g transform="translate(44.2375 151.215579)scale(0.1 -0.1)">
       <use xlink:href="#DejaVuSans-32"/>
      </g>
     </g>
    </g>
    <g id="ytick_6">
     <g id="line2d_12">
      <g>
       <use style="stroke:#000000;stroke-width:0.8;" x="57.6" xlink:href="#mef4a5d79d3" y="114.603219"/>
      </g>
     </g>
     <g id="text_12">
      <!-- 4 -->
      <g transform="translate(44.2375 118.402437)scale(0.1 -0.1)">
       <use xlink:href="#DejaVuSans-34"/>
      </g>
     </g>
    </g>
    <g id="ytick_7">
     <g id="line2d_13">
      <g>
       <use style="stroke:#000000;stroke-width:0.8;" x="57.6" xlink:href="#mef4a5d79d3" y="81.790077"/>
      </g>
     </g>
     <g id="text_13">
      <!-- 6 -->
      <g transform="translate(44.2375 85.589296)scale(0.1 -0.1)">
       <use xlink:href="#DejaVuSans-36"/>
      </g>
     </g>
    </g>
    <g id="ytick_8">
     <g id="line2d_14">
      <g>
       <use style="stroke:#000000;stroke-width:0.8;" x="57.6" xlink:href="#mef4a5d79d3" y="48.976936"/>
      </g>
     </g>
     <g id="text_14">
      <!-- 8 -->
      <g transform="translate(44.2375 52.776154)scale(0.1 -0.1)">
       <defs>
        <path d="M 2034 2216 
Q 1584 2216 1326 1975 
Q 1069 1734 1069 1313 
Q 1069 891 1326 650 
Q 1584 409 2034 409 
Q 2484 409 2743 651 
Q 3003 894 3003 1313 
Q 3003 1734 2745 1975 
Q 2488 2216 2034 2216 
z
M 1403 2484 
Q 997 2584 770 2862 
Q 544 3141 544 3541 
Q 544 4100 942 4425 
Q 1341 4750 2034 4750 
Q 2731 4750 3128 4425 
Q 3525 4100 3525 3541 
Q 3525 3141 3298 2862 
Q 3072 2584 2669 2484 
Q 3125 2378 3379 2068 
Q 3634 1759 3634 1313 
Q 3634 634 3220 271 
Q 2806 -91 2034 -91 
Q 1263 -91 848 271 
Q 434 634 434 1313 
Q 434 1759 690 2068 
Q 947 2378 1403 2484 
z
M 1172 3481 
Q 1172 3119 1398 2916 
Q 1625 2713 2034 2713 
Q 2441 2713 2670 2916 
Q 2900 3119 2900 3481 
Q 2900 3844 2670 4047 
Q 2441 4250 2034 4250 
Q 1625 4250 1398 4047 
Q 1172 3844 1172 3481 
z
" id="DejaVuSans-38" transform="scale(0.015625)"/>
       </defs>
       <use xlink:href="#DejaVuSans-38"/>
      </g>
     </g>
    </g>
   </g>
   <g id="patch_3">
    <path d="M 57.6 307.584 
L 57.6 41.472 
" style="fill:none;stroke:#000000;stroke-linecap:square;stroke-linejoin:miter;stroke-width:0.8;"/>
   </g>
   <g id="patch_4">
    <path d="M 414.72 307.584 
L 414.72 41.472 
" style="fill:none;stroke:#000000;stroke-linecap:square;stroke-linejoin:miter;stroke-width:0.8;"/>
   </g>
   <g id="patch_5">
    <path d="M 57.6 307.584 
L 414.72 307.584 
" style="fill:none;stroke:#000000;stroke-linecap:square;stroke-linejoin:miter;stroke-width:0.8;"/>
   </g>
   <g id="patch_6">
    <path d="M 57.6 41.472 
L 414.72 41.472 
" style="fill:none;stroke:#000000;stroke-linecap:square;stroke-linejoin:miter;stroke-width:0.8;"/>
   </g>
  </g>
 </g>
 <defs>
  <clipPath id="p9562e01dd0">
   <rect height="266.112" width="357.12" x="57.6" y="41.472"/>
  </clipPath>
 </defs>
</svg>
