<?xml version="1.0" encoding="utf-8" standalone="no"?>
<!DOCTYPE svg PUBLIC "-//W3C//DTD SVG 1.1//EN"
  "http://www.w3.org/Graphics/SVG/1.1/DTD/svg11.dtd">
<svg height="345.6pt" version="1.1" viewBox="0 0 460.8 345.6" width="460.8pt" xmlns="http://www.w3.org/2000/svg" xmlns:xlink="http://www.w3.org/1999/xlink">
 <metadata>
  <rdf:RDF xmlns:cc="http://creativecommons.org/ns#" xmlns:dc="http://purl.org/dc/elements/1.1/" xmlns:rdf="http://www.w3.org/1999/02/22-rdf-syntax-ns#">
   <cc:Work>
    <dc:type rdf:resource="http://purl.org/dc/dcmitype/StillImage"/>
    <dc:date>2021-05-16T12:32:40.466928</dc:date>
    <dc:format>image/svg+xml</dc:format>
    <dc:creator>
     <cc:Agent>
      <dc:title>Matplotlib v3.4.2, https://matplotlib.org/</dc:title>
     </cc:Agent>
    </dc:creator>
   </cc:Work>
  </rdf:RDF>
 </metadata>
 <defs>
  <style type="text/css">*{stroke-linecap:butt;stroke-linejoin:round;}</style>
 </defs>
 <g id="figure_1">
  <g id="patch_1">
   <path d="M 0 345.6 
L 460.8 345.6 
L 460.8 0 
L 0 0 
z
" style="fill:none;"/>
  </g>
  <g id="patch_2">
   <path d="M 103.104 307.584 
L 369.216 307.584 
L 369.216 41.472 
L 103.104 41.472 
z
" style="fill:none;"/>
  </g>
  <g id="pane3d_1">
   <g id="patch_3">
    <path d="M 123.197291 241.969309 
L 211.076164 168.307495 
L 209.854564 62.073991 
L 117.770234 129.272941 
" style="fill:#f2f2f2;opacity:0.5;stroke:#f2f2f2;stroke-linejoin:miter;"/>
   </g>
  </g>
  <g id="pane3d_2">
   <g id="patch_4">
    <path d="M 211.076164 168.307495 
L 352.090401 209.294766 
L 357.122702 99.402171 
L 209.854564 62.073991 
" style="fill:#e6e6e6;opacity:0.5;stroke:#e6e6e6;stroke-linejoin:miter;"/>
   </g>
  </g>
  <g id="pane3d_3">
   <g id="patch_5">
    <path d="M 123.197291 241.969309 
L 272.679269 290.790123 
L 352.090401 209.294766 
L 211.076164 168.307495 
" style="fill:#ececec;opacity:0.5;stroke:#ececec;stroke-linejoin:miter;"/>
   </g>
  </g>
  <g id="axis3d_1">
   <g id="line2d_1">
    <path d="M 123.197291 241.969309 
L 272.679269 290.790123 
" style="fill:none;stroke:#000000;stroke-linecap:square;stroke-width:0.8;"/>
   </g>
   <g id="Line3DCollection_1">
    <path d="M 144.750076 249.008448 
L 231.484987 174.239534 
L 231.130052 67.466707 
" style="fill:none;stroke:#b0b0b0;stroke-width:0.8;"/>
    <path d="M 171.377806 257.705065 
L 256.663483 181.557929 
L 257.395665 74.124274 
" style="fill:none;stroke:#b0b0b0;stroke-width:0.8;"/>
    <path d="M 198.520216 266.569776 
L 282.287887 189.005931 
L 284.14677 80.904899 
" style="fill:none;stroke:#b0b0b0;stroke-width:0.8;"/>
    <path d="M 226.192373 275.607503 
L 308.370151 196.587016 
L 311.396952 87.812026 
" style="fill:none;stroke:#b0b0b0;stroke-width:0.8;"/>
    <path d="M 254.409939 284.82336 
L 334.922658 204.304781 
L 339.160311 94.849228 
" style="fill:none;stroke:#b0b0b0;stroke-width:0.8;"/>
   </g>
   <g id="xtick_1">
    <g id="line2d_2">
     <path d="M 145.505635 248.357126 
L 143.2357 250.3139 
" style="fill:none;stroke:#000000;stroke-linecap:square;stroke-width:0.8;"/>
    </g>
    <g id="text_1">
     <!-- −4 -->
     <g transform="translate(129.862498 272.404015)scale(0.1 -0.1)">
      <defs>
       <path d="M 678 2272 
L 4684 2272 
L 4684 1741 
L 678 1741 
L 678 2272 
z
" id="DejaVuSans-2212" transform="scale(0.015625)"/>
       <path d="M 2419 4116 
L 825 1625 
L 2419 1625 
L 2419 4116 
z
M 2253 4666 
L 3047 4666 
L 3047 1625 
L 3713 1625 
L 3713 1100 
L 3047 1100 
L 3047 0 
L 2419 0 
L 2419 1100 
L 313 1100 
L 313 1709 
L 2253 4666 
z
" id="DejaVuSans-34" transform="scale(0.015625)"/>
      </defs>
      <use xlink:href="#DejaVuSans-2212"/>
      <use x="83.789062" xlink:href="#DejaVuSans-34"/>
     </g>
    </g>
   </g>
   <g id="xtick_2">
    <g id="line2d_3">
     <path d="M 172.121321 257.041219 
L 169.88754 259.035646 
" style="fill:none;stroke:#000000;stroke-linecap:square;stroke-width:0.8;"/>
    </g>
    <g id="text_2">
     <!-- −2 -->
     <g transform="translate(156.518396 281.285195)scale(0.1 -0.1)">
      <defs>
       <path d="M 1228 531 
L 3431 531 
L 3431 0 
L 469 0 
L 469 531 
Q 828 903 1448 1529 
Q 2069 2156 2228 2338 
Q 2531 2678 2651 2914 
Q 2772 3150 2772 3378 
Q 2772 3750 2511 3984 
Q 2250 4219 1831 4219 
Q 1534 4219 1204 4116 
Q 875 4013 500 3803 
L 500 4441 
Q 881 4594 1212 4672 
Q 1544 4750 1819 4750 
Q 2544 4750 2975 4387 
Q 3406 4025 3406 3419 
Q 3406 3131 3298 2873 
Q 3191 2616 2906 2266 
Q 2828 2175 2409 1742 
Q 1991 1309 1228 531 
z
" id="DejaVuSans-32" transform="scale(0.015625)"/>
      </defs>
      <use xlink:href="#DejaVuSans-2212"/>
      <use x="83.789062" xlink:href="#DejaVuSans-32"/>
     </g>
    </g>
   </g>
   <g id="xtick_3">
    <g id="line2d_4">
     <path d="M 199.251078 265.893042 
L 197.05528 267.926219 
" style="fill:none;stroke:#000000;stroke-linecap:square;stroke-width:0.8;"/>
    </g>
    <g id="text_3">
     <!-- 0 -->
     <g transform="translate(187.881324 290.338691)scale(0.1 -0.1)">
      <defs>
       <path d="M 2034 4250 
Q 1547 4250 1301 3770 
Q 1056 3291 1056 2328 
Q 1056 1369 1301 889 
Q 1547 409 2034 409 
Q 2525 409 2770 889 
Q 3016 1369 3016 2328 
Q 3016 3291 2770 3770 
Q 2525 4250 2034 4250 
z
M 2034 4750 
Q 2819 4750 3233 4129 
Q 3647 3509 3647 2328 
Q 3647 1150 3233 529 
Q 2819 -91 2034 -91 
Q 1250 -91 836 529 
Q 422 1150 422 2328 
Q 422 3509 836 4129 
Q 1250 4750 2034 4750 
z
" id="DejaVuSans-30" transform="scale(0.015625)"/>
      </defs>
      <use xlink:href="#DejaVuSans-30"/>
     </g>
    </g>
   </g>
   <g id="xtick_4">
    <g id="line2d_5">
     <path d="M 226.909945 274.9175 
L 224.754046 276.990568 
" style="fill:none;stroke:#000000;stroke-linecap:square;stroke-width:0.8;"/>
    </g>
    <g id="text_4">
     <!-- 2 -->
     <g transform="translate(215.586792 299.569566)scale(0.1 -0.1)">
      <use xlink:href="#DejaVuSans-32"/>
     </g>
    </g>
   </g>
   <g id="xtick_5">
    <g id="line2d_6">
     <path d="M 255.113552 284.119696 
L 252.999561 286.23384 
" style="fill:none;stroke:#000000;stroke-linecap:square;stroke-width:0.8;"/>
    </g>
    <g id="text_5">
     <!-- 4 -->
     <g transform="translate(243.840445 308.983084)scale(0.1 -0.1)">
      <use xlink:href="#DejaVuSans-34"/>
     </g>
    </g>
   </g>
  </g>
  <g id="axis3d_2">
   <g id="line2d_7">
    <path d="M 352.090401 209.294766 
L 272.679269 290.790123 
" style="fill:none;stroke:#000000;stroke-linecap:square;stroke-width:0.8;"/>
   </g>
   <g id="Line3DCollection_2">
    <path d="M 127.894925 121.884402 
L 132.826985 233.897509 
L 281.415342 281.824762 
" style="fill:none;stroke:#b0b0b0;stroke-width:0.8;"/>
    <path d="M 143.190093 110.722685 
L 147.389605 221.690832 
L 294.610501 268.283283 
" style="fill:none;stroke:#b0b0b0;stroke-width:0.8;"/>
    <path d="M 158.054475 99.875337 
L 161.559668 209.813204 
L 307.431426 255.12586 
" style="fill:none;stroke:#b0b0b0;stroke-width:0.8;"/>
    <path d="M 172.506018 89.329259 
L 175.352835 198.251498 
L 319.893814 242.336384 
" style="fill:none;stroke:#b0b0b0;stroke-width:0.8;"/>
    <path d="M 186.561686 79.072072 
L 188.783948 186.993273 
L 332.012499 229.899633 
" style="fill:none;stroke:#b0b0b0;stroke-width:0.8;"/>
    <path d="M 200.237525 69.092068 
L 201.867075 176.026736 
L 343.801504 217.801213 
" style="fill:none;stroke:#b0b0b0;stroke-width:0.8;"/>
   </g>
   <g id="xtick_6">
    <g id="line2d_8">
     <path d="M 280.163407 281.42095 
L 283.922439 282.633428 
" style="fill:none;stroke:#000000;stroke-linecap:square;stroke-width:0.8;"/>
    </g>
    <g id="text_6">
     <!-- −3 -->
     <g transform="translate(286.881434 302.797213)scale(0.1 -0.1)">
      <defs>
       <path d="M 2597 2516 
Q 3050 2419 3304 2112 
Q 3559 1806 3559 1356 
Q 3559 666 3084 287 
Q 2609 -91 1734 -91 
Q 1441 -91 1130 -33 
Q 819 25 488 141 
L 488 750 
Q 750 597 1062 519 
Q 1375 441 1716 441 
Q 2309 441 2620 675 
Q 2931 909 2931 1356 
Q 2931 1769 2642 2001 
Q 2353 2234 1838 2234 
L 1294 2234 
L 1294 2753 
L 1863 2753 
Q 2328 2753 2575 2939 
Q 2822 3125 2822 3475 
Q 2822 3834 2567 4026 
Q 2313 4219 1838 4219 
Q 1578 4219 1281 4162 
Q 984 4106 628 3988 
L 628 4550 
Q 988 4650 1302 4700 
Q 1616 4750 1894 4750 
Q 2613 4750 3031 4423 
Q 3450 4097 3450 3541 
Q 3450 3153 3228 2886 
Q 3006 2619 2597 2516 
z
" id="DejaVuSans-33" transform="scale(0.015625)"/>
      </defs>
      <use xlink:href="#DejaVuSans-2212"/>
      <use x="83.789062" xlink:href="#DejaVuSans-33"/>
     </g>
    </g>
   </g>
   <g id="xtick_7">
    <g id="line2d_9">
     <path d="M 293.370989 267.891002 
L 297.092676 269.068841 
" style="fill:none;stroke:#000000;stroke-linecap:square;stroke-width:0.8;"/>
    </g>
    <g id="text_7">
     <!-- −2 -->
     <g transform="translate(299.899585 289.055275)scale(0.1 -0.1)">
      <use xlink:href="#DejaVuSans-2212"/>
      <use x="83.789062" xlink:href="#DejaVuSans-32"/>
     </g>
    </g>
   </g>
   <g id="xtick_8">
    <g id="line2d_10">
     <path d="M 306.204139 254.744624 
L 309.889072 255.889288 
" style="fill:none;stroke:#000000;stroke-linecap:square;stroke-width:0.8;"/>
    </g>
    <g id="text_8">
     <!-- −1 -->
     <g transform="translate(312.548307 275.703306)scale(0.1 -0.1)">
      <defs>
       <path d="M 794 531 
L 1825 531 
L 1825 4091 
L 703 3866 
L 703 4441 
L 1819 4666 
L 2450 4666 
L 2450 531 
L 3481 531 
L 3481 0 
L 794 0 
L 794 531 
z
" id="DejaVuSans-31" transform="scale(0.015625)"/>
      </defs>
      <use xlink:href="#DejaVuSans-2212"/>
      <use x="83.789062" xlink:href="#DejaVuSans-31"/>
     </g>
    </g>
   </g>
   <g id="xtick_9">
    <g id="line2d_11">
     <path d="M 318.678559 241.965732 
L 322.327325 243.078603 
" style="fill:none;stroke:#000000;stroke-linecap:square;stroke-width:0.8;"/>
    </g>
    <g id="text_9">
     <!-- 0 -->
     <g transform="translate(329.032951 262.724937)scale(0.1 -0.1)">
      <use xlink:href="#DejaVuSans-30"/>
     </g>
    </g>
   </g>
   <g id="xtick_10">
    <g id="line2d_12">
     <path d="M 330.809083 229.539131 
L 334.42226 230.621515 
" style="fill:none;stroke:#000000;stroke-linecap:square;stroke-width:0.8;"/>
    </g>
    <g id="text_10">
     <!-- 1 -->
     <g transform="translate(340.988477 250.104704)scale(0.1 -0.1)">
      <use xlink:href="#DejaVuSans-31"/>
     </g>
    </g>
   </g>
   <g id="xtick_11">
    <g id="line2d_13">
     <path d="M 342.609738 217.450449 
L 346.187899 218.503582 
" style="fill:none;stroke:#000000;stroke-linecap:square;stroke-width:0.8;"/>
    </g>
    <g id="text_11">
     <!-- 2 -->
     <g transform="translate(352.618582 237.827985)scale(0.1 -0.1)">
      <use xlink:href="#DejaVuSans-32"/>
     </g>
    </g>
   </g>
  </g>
  <g id="axis3d_3">
   <g id="line2d_14">
    <path d="M 352.090401 209.294766 
L 357.122702 99.402171 
" style="fill:none;stroke:#000000;stroke-linecap:square;stroke-width:0.8;"/>
   </g>
   <g id="Line3DCollection_3">
    <path d="M 352.261798 205.551877 
L 211.034472 164.681847 
L 123.012749 238.137171 
" style="fill:none;stroke:#b0b0b0;stroke-width:0.8;"/>
    <path d="M 352.981233 189.841252 
L 210.859537 149.469029 
L 122.23791 222.04713 
" style="fill:none;stroke:#b0b0b0;stroke-width:0.8;"/>
    <path d="M 353.709929 173.928405 
L 210.682458 134.069762 
L 121.452716 205.742079 
" style="fill:none;stroke:#b0b0b0;stroke-width:0.8;"/>
    <path d="M 354.448065 157.809408 
L 210.503195 118.480596 
L 120.65696 189.217679 
" style="fill:none;stroke:#b0b0b0;stroke-width:0.8;"/>
    <path d="M 355.195825 141.480227 
L 210.321708 102.697997 
L 119.850425 172.469475 
" style="fill:none;stroke:#b0b0b0;stroke-width:0.8;"/>
    <path d="M 355.9534 124.936726 
L 210.137954 86.718343 
L 119.032893 155.492887 
" style="fill:none;stroke:#b0b0b0;stroke-width:0.8;"/>
    <path d="M 356.720984 108.174656 
L 209.951892 70.53792 
L 118.204136 138.283213 
" style="fill:none;stroke:#b0b0b0;stroke-width:0.8;"/>
   </g>
   <g id="xtick_12">
    <g id="line2d_15">
     <path d="M 351.076427 205.208841 
L 354.635364 206.238767 
" style="fill:none;stroke:#000000;stroke-linecap:square;stroke-width:0.8;"/>
    </g>
    <g id="text_12">
     <!-- −7.5 -->
     <g transform="translate(358.396277 210.552594)scale(0.1 -0.1)">
      <defs>
       <path d="M 525 4666 
L 3525 4666 
L 3525 4397 
L 1831 0 
L 1172 0 
L 2766 4134 
L 525 4134 
L 525 4666 
z
" id="DejaVuSans-37" transform="scale(0.015625)"/>
       <path d="M 684 794 
L 1344 794 
L 1344 0 
L 684 0 
L 684 794 
z
" id="DejaVuSans-2e" transform="scale(0.015625)"/>
       <path d="M 691 4666 
L 3169 4666 
L 3169 4134 
L 1269 4134 
L 1269 2991 
Q 1406 3038 1543 3061 
Q 1681 3084 1819 3084 
Q 2600 3084 3056 2656 
Q 3513 2228 3513 1497 
Q 3513 744 3044 326 
Q 2575 -91 1722 -91 
Q 1428 -91 1123 -41 
Q 819 9 494 109 
L 494 744 
Q 775 591 1075 516 
Q 1375 441 1709 441 
Q 2250 441 2565 725 
Q 2881 1009 2881 1497 
Q 2881 1984 2565 2268 
Q 2250 2553 1709 2553 
Q 1456 2553 1204 2497 
Q 953 2441 691 2322 
L 691 4666 
z
" id="DejaVuSans-35" transform="scale(0.015625)"/>
      </defs>
      <use xlink:href="#DejaVuSans-2212"/>
      <use x="83.789062" xlink:href="#DejaVuSans-37"/>
      <use x="147.412109" xlink:href="#DejaVuSans-2e"/>
      <use x="179.199219" xlink:href="#DejaVuSans-35"/>
     </g>
    </g>
   </g>
   <g id="xtick_13">
    <g id="line2d_16">
     <path d="M 351.787998 189.502292 
L 355.370564 190.519984 
" style="fill:none;stroke:#000000;stroke-linecap:square;stroke-width:0.8;"/>
    </g>
    <g id="text_13">
     <!-- −5.0 -->
     <g transform="translate(359.230052 194.872883)scale(0.1 -0.1)">
      <use xlink:href="#DejaVuSans-2212"/>
      <use x="83.789062" xlink:href="#DejaVuSans-35"/>
      <use x="147.412109" xlink:href="#DejaVuSans-2e"/>
      <use x="179.199219" xlink:href="#DejaVuSans-30"/>
     </g>
    </g>
   </g>
   <g id="xtick_14">
    <g id="line2d_17">
     <path d="M 352.508725 173.593656 
L 356.115235 174.598712 
" style="fill:none;stroke:#000000;stroke-linecap:square;stroke-width:0.8;"/>
    </g>
    <g id="text_14">
     <!-- −2.5 -->
     <g transform="translate(360.074528 178.991963)scale(0.1 -0.1)">
      <use xlink:href="#DejaVuSans-2212"/>
      <use x="83.789062" xlink:href="#DejaVuSans-32"/>
      <use x="147.412109" xlink:href="#DejaVuSans-2e"/>
      <use x="179.199219" xlink:href="#DejaVuSans-35"/>
     </g>
    </g>
   </g>
   <g id="xtick_15">
    <g id="line2d_18">
     <path d="M 353.238785 157.479007 
L 356.869561 158.471012 
" style="fill:none;stroke:#000000;stroke-linecap:square;stroke-width:0.8;"/>
    </g>
    <g id="text_15">
     <!-- 0.0 -->
     <g transform="translate(365.119753 162.905936)scale(0.1 -0.1)">
      <use xlink:href="#DejaVuSans-30"/>
      <use x="63.623047" xlink:href="#DejaVuSans-2e"/>
      <use x="95.410156" xlink:href="#DejaVuSans-30"/>
     </g>
    </g>
   </g>
   <g id="xtick_16">
    <g id="line2d_19">
     <path d="M 353.97836 141.154317 
L 357.633731 142.132845 
" style="fill:none;stroke:#000000;stroke-linecap:square;stroke-width:0.8;"/>
    </g>
    <g id="text_16">
     <!-- 2.5 -->
     <g transform="translate(365.986255 146.610802)scale(0.1 -0.1)">
      <use xlink:href="#DejaVuSans-32"/>
      <use x="63.623047" xlink:href="#DejaVuSans-2e"/>
      <use x="95.410156" xlink:href="#DejaVuSans-35"/>
     </g>
    </g>
   </g>
   <g id="xtick_17">
    <g id="line2d_20">
     <path d="M 354.727638 124.615452 
L 358.407939 125.580063 
" style="fill:none;stroke:#000000;stroke-linecap:square;stroke-width:0.8;"/>
    </g>
    <g id="text_17">
     <!-- 5.0 -->
     <g transform="translate(366.864094 130.102456)scale(0.1 -0.1)">
      <use xlink:href="#DejaVuSans-35"/>
      <use x="63.623047" xlink:href="#DejaVuSans-2e"/>
      <use x="95.410156" xlink:href="#DejaVuSans-30"/>
     </g>
    </g>
   </g>
   <g id="xtick_18">
    <g id="line2d_21">
     <path d="M 355.486812 107.858171 
L 359.192385 108.80841 
" style="fill:none;stroke:#000000;stroke-linecap:square;stroke-width:0.8;"/>
    </g>
    <g id="text_18">
     <!-- 7.5 -->
     <g transform="translate(367.753494 113.376688)scale(0.1 -0.1)">
      <use xlink:href="#DejaVuSans-37"/>
      <use x="63.623047" xlink:href="#DejaVuSans-2e"/>
      <use x="95.410156" xlink:href="#DejaVuSans-35"/>
     </g>
    </g>
   </g>
  </g>
  <g id="axes_1">
   <g id="Path3DCollection_1">
    <defs>
     <path d="M 0 2.236068 
C 0.593012 2.236068 1.161816 2.000462 1.581139 1.581139 
C 2.000462 1.161816 2.236068 0.593012 2.236068 -0 
C 2.236068 -0.593012 2.000462 -1.161816 1.581139 -1.581139 
C 1.161816 -2.000462 0.593012 -2.236068 0 -2.236068 
C -0.593012 -2.236068 -1.161816 -2.000462 -1.581139 -1.581139 
C -2.000462 -1.161816 -2.236068 -0.593012 -2.236068 0 
C -2.236068 0.593012 -2.000462 1.161816 -1.581139 1.581139 
C -1.161816 2.000462 -0.593012 2.236068 0 2.236068 
z
" id="C0_0_c845964c6b"/>
    </defs>
    <g clip-path="url(#p5c873058fb)">
     <use style="fill:#1f77b4;fill-opacity:0.3;stroke:#1f77b4;stroke-opacity:0.3;" x="240.006676" xlink:href="#C0_0_c845964c6b" y="175.069374"/>
    </g>
    <g clip-path="url(#p5c873058fb)">
     <use style="fill:#1f77b4;fill-opacity:0.390297;stroke:#1f77b4;stroke-opacity:0.390297;" x="219.383017" xlink:href="#C0_0_c845964c6b" y="177.355078"/>
    </g>
    <g clip-path="url(#p5c873058fb)">
     <use style="fill:#1f77b4;fill-opacity:0.433607;stroke:#1f77b4;stroke-opacity:0.433607;" x="208.721562" xlink:href="#C0_0_c845964c6b" y="183.200104"/>
    </g>
    <g clip-path="url(#p5c873058fb)">
     <use style="fill:#1f77b4;fill-opacity:0.455952;stroke:#1f77b4;stroke-opacity:0.455952;" x="224.897321" xlink:href="#C0_0_c845964c6b" y="187.769072"/>
    </g>
    <g clip-path="url(#p5c873058fb)">
     <use style="fill:#1f77b4;fill-opacity:0.459098;stroke:#1f77b4;stroke-opacity:0.459098;" x="231.188908" xlink:href="#C0_0_c845964c6b" y="172.376204"/>
    </g>
    <g clip-path="url(#p5c873058fb)">
     <use style="fill:#1f77b4;fill-opacity:0.465011;stroke:#1f77b4;stroke-opacity:0.465011;" x="230.372859" xlink:href="#C0_0_c845964c6b" y="172.296133"/>
    </g>
    <g clip-path="url(#p5c873058fb)">
     <use style="fill:#1f77b4;fill-opacity:0.472975;stroke:#1f77b4;stroke-opacity:0.472975;" x="250.048518" xlink:href="#C0_0_c845964c6b" y="194.985303"/>
    </g>
    <g clip-path="url(#p5c873058fb)">
     <use style="fill:#1f77b4;fill-opacity:0.474171;stroke:#1f77b4;stroke-opacity:0.474171;" x="223.570084" xlink:href="#C0_0_c845964c6b" y="177.043605"/>
    </g>
    <g clip-path="url(#p5c873058fb)">
     <use style="fill:#1f77b4;fill-opacity:0.491385;stroke:#1f77b4;stroke-opacity:0.491385;" x="181.529092" xlink:href="#C0_0_c845964c6b" y="179.610324"/>
    </g>
    <g clip-path="url(#p5c873058fb)">
     <use style="fill:#1f77b4;fill-opacity:0.50022;stroke:#1f77b4;stroke-opacity:0.50022;" x="245.212871" xlink:href="#C0_0_c845964c6b" y="202.84812"/>
    </g>
    <g clip-path="url(#p5c873058fb)">
     <use style="fill:#1f77b4;fill-opacity:0.515713;stroke:#1f77b4;stroke-opacity:0.515713;" x="205.301758" xlink:href="#C0_0_c845964c6b" y="182.120241"/>
    </g>
    <g clip-path="url(#p5c873058fb)">
     <use style="fill:#1f77b4;fill-opacity:0.516044;stroke:#1f77b4;stroke-opacity:0.516044;" x="195.668212" xlink:href="#C0_0_c845964c6b" y="191.889466"/>
    </g>
    <g clip-path="url(#p5c873058fb)">
     <use style="fill:#1f77b4;fill-opacity:0.517746;stroke:#1f77b4;stroke-opacity:0.517746;" x="212.30162" xlink:href="#C0_0_c845964c6b" y="193.520741"/>
    </g>
    <g clip-path="url(#p5c873058fb)">
     <use style="fill:#1f77b4;fill-opacity:0.52117;stroke:#1f77b4;stroke-opacity:0.52117;" x="196.962024" xlink:href="#C0_0_c845964c6b" y="184.15612"/>
    </g>
    <g clip-path="url(#p5c873058fb)">
     <use style="fill:#1f77b4;fill-opacity:0.524737;stroke:#1f77b4;stroke-opacity:0.524737;" x="184.335442" xlink:href="#C0_0_c845964c6b" y="187.792741"/>
    </g>
    <g clip-path="url(#p5c873058fb)">
     <use style="fill:#1f77b4;fill-opacity:0.53503;stroke:#1f77b4;stroke-opacity:0.53503;" x="223.947251" xlink:href="#C0_0_c845964c6b" y="199.39883"/>
    </g>
    <g clip-path="url(#p5c873058fb)">
     <use style="fill:#1f77b4;fill-opacity:0.560462;stroke:#1f77b4;stroke-opacity:0.560462;" x="222.186764" xlink:href="#C0_0_c845964c6b" y="160.654899"/>
    </g>
    <g clip-path="url(#p5c873058fb)">
     <use style="fill:#1f77b4;fill-opacity:0.577328;stroke:#1f77b4;stroke-opacity:0.577328;" x="178.058704" xlink:href="#C0_0_c845964c6b" y="191.314338"/>
    </g>
    <g clip-path="url(#p5c873058fb)">
     <use style="fill:#1f77b4;fill-opacity:0.578438;stroke:#1f77b4;stroke-opacity:0.578438;" x="194.329118" xlink:href="#C0_0_c845964c6b" y="188.594463"/>
    </g>
    <g clip-path="url(#p5c873058fb)">
     <use style="fill:#1f77b4;fill-opacity:0.586926;stroke:#1f77b4;stroke-opacity:0.586926;" x="213.03886" xlink:href="#C0_0_c845964c6b" y="190.462202"/>
    </g>
    <g clip-path="url(#p5c873058fb)">
     <use style="fill:#1f77b4;fill-opacity:0.586978;stroke:#1f77b4;stroke-opacity:0.586978;" x="204.092454" xlink:href="#C0_0_c845964c6b" y="198.755355"/>
    </g>
    <g clip-path="url(#p5c873058fb)">
     <use style="fill:#1f77b4;fill-opacity:0.587186;stroke:#1f77b4;stroke-opacity:0.587186;" x="203.300416" xlink:href="#C0_0_c845964c6b" y="196.40098"/>
    </g>
    <g clip-path="url(#p5c873058fb)">
     <use style="fill:#1f77b4;fill-opacity:0.600395;stroke:#1f77b4;stroke-opacity:0.600395;" x="193.576259" xlink:href="#C0_0_c845964c6b" y="183.553743"/>
    </g>
    <g clip-path="url(#p5c873058fb)">
     <use style="fill:#1f77b4;fill-opacity:0.605761;stroke:#1f77b4;stroke-opacity:0.605761;" x="202.219698" xlink:href="#C0_0_c845964c6b" y="192.082536"/>
    </g>
    <g clip-path="url(#p5c873058fb)">
     <use style="fill:#1f77b4;fill-opacity:0.606295;stroke:#1f77b4;stroke-opacity:0.606295;" x="308.344804" xlink:href="#C0_0_c845964c6b" y="179.021916"/>
    </g>
    <g clip-path="url(#p5c873058fb)">
     <use style="fill:#1f77b4;fill-opacity:0.607471;stroke:#1f77b4;stroke-opacity:0.607471;" x="304.620699" xlink:href="#C0_0_c845964c6b" y="156.770147"/>
    </g>
    <g clip-path="url(#p5c873058fb)">
     <use style="fill:#1f77b4;fill-opacity:0.614634;stroke:#1f77b4;stroke-opacity:0.614634;" x="204.029465" xlink:href="#C0_0_c845964c6b" y="192.817242"/>
    </g>
    <g clip-path="url(#p5c873058fb)">
     <use style="fill:#1f77b4;fill-opacity:0.622804;stroke:#1f77b4;stroke-opacity:0.622804;" x="195.554092" xlink:href="#C0_0_c845964c6b" y="197.635958"/>
    </g>
    <g clip-path="url(#p5c873058fb)">
     <use style="fill:#1f77b4;fill-opacity:0.632351;stroke:#1f77b4;stroke-opacity:0.632351;" x="278.695878" xlink:href="#C0_0_c845964c6b" y="115.076114"/>
    </g>
    <g clip-path="url(#p5c873058fb)">
     <use style="fill:#1f77b4;fill-opacity:0.655572;stroke:#1f77b4;stroke-opacity:0.655572;" x="203.891974" xlink:href="#C0_0_c845964c6b" y="208.76128"/>
    </g>
    <g clip-path="url(#p5c873058fb)">
     <use style="fill:#1f77b4;fill-opacity:0.659423;stroke:#1f77b4;stroke-opacity:0.659423;" x="188.254298" xlink:href="#C0_0_c845964c6b" y="192.224086"/>
    </g>
    <g clip-path="url(#p5c873058fb)">
     <use style="fill:#1f77b4;fill-opacity:0.662086;stroke:#1f77b4;stroke-opacity:0.662086;" x="247.914659" xlink:href="#C0_0_c845964c6b" y="113.535652"/>
    </g>
    <g clip-path="url(#p5c873058fb)">
     <use style="fill:#1f77b4;fill-opacity:0.662714;stroke:#1f77b4;stroke-opacity:0.662714;" x="313.045218" xlink:href="#C0_0_c845964c6b" y="167.949785"/>
    </g>
    <g clip-path="url(#p5c873058fb)">
     <use style="fill:#1f77b4;fill-opacity:0.66705;stroke:#1f77b4;stroke-opacity:0.66705;" x="285.402562" xlink:href="#C0_0_c845964c6b" y="174.57972"/>
    </g>
    <g clip-path="url(#p5c873058fb)">
     <use style="fill:#1f77b4;fill-opacity:0.668659;stroke:#1f77b4;stroke-opacity:0.668659;" x="196.832979" xlink:href="#C0_0_c845964c6b" y="199.600297"/>
    </g>
    <g clip-path="url(#p5c873058fb)">
     <use style="fill:#1f77b4;fill-opacity:0.685821;stroke:#1f77b4;stroke-opacity:0.685821;" x="195.818788" xlink:href="#C0_0_c845964c6b" y="213.891413"/>
    </g>
    <g clip-path="url(#p5c873058fb)">
     <use style="fill:#1f77b4;fill-opacity:0.698378;stroke:#1f77b4;stroke-opacity:0.698378;" x="240.458221" xlink:href="#C0_0_c845964c6b" y="132.297158"/>
    </g>
    <g clip-path="url(#p5c873058fb)">
     <use style="fill:#1f77b4;fill-opacity:0.698727;stroke:#1f77b4;stroke-opacity:0.698727;" x="303.135863" xlink:href="#C0_0_c845964c6b" y="174.011058"/>
    </g>
    <g clip-path="url(#p5c873058fb)">
     <use style="fill:#1f77b4;fill-opacity:0.70558;stroke:#1f77b4;stroke-opacity:0.70558;" x="262.41955" xlink:href="#C0_0_c845964c6b" y="135.915626"/>
    </g>
    <g clip-path="url(#p5c873058fb)">
     <use style="fill:#1f77b4;fill-opacity:0.707175;stroke:#1f77b4;stroke-opacity:0.707175;" x="237.621223" xlink:href="#C0_0_c845964c6b" y="122.721772"/>
    </g>
    <g clip-path="url(#p5c873058fb)">
     <use style="fill:#1f77b4;fill-opacity:0.708901;stroke:#1f77b4;stroke-opacity:0.708901;" x="301.415605" xlink:href="#C0_0_c845964c6b" y="165.991006"/>
    </g>
    <g clip-path="url(#p5c873058fb)">
     <use style="fill:#1f77b4;fill-opacity:0.708905;stroke:#1f77b4;stroke-opacity:0.708905;" x="283.684586" xlink:href="#C0_0_c845964c6b" y="157.312054"/>
    </g>
    <g clip-path="url(#p5c873058fb)">
     <use style="fill:#1f77b4;fill-opacity:0.721913;stroke:#1f77b4;stroke-opacity:0.721913;" x="208.164277" xlink:href="#C0_0_c845964c6b" y="204.296612"/>
    </g>
    <g clip-path="url(#p5c873058fb)">
     <use style="fill:#1f77b4;fill-opacity:0.72398;stroke:#1f77b4;stroke-opacity:0.72398;" x="263.316874" xlink:href="#C0_0_c845964c6b" y="127.159866"/>
    </g>
    <g clip-path="url(#p5c873058fb)">
     <use style="fill:#1f77b4;fill-opacity:0.725059;stroke:#1f77b4;stroke-opacity:0.725059;" x="212.762843" xlink:href="#C0_0_c845964c6b" y="196.21579"/>
    </g>
    <g clip-path="url(#p5c873058fb)">
     <use style="fill:#1f77b4;fill-opacity:0.729342;stroke:#1f77b4;stroke-opacity:0.729342;" x="315.570092" xlink:href="#C0_0_c845964c6b" y="179.010289"/>
    </g>
    <g clip-path="url(#p5c873058fb)">
     <use style="fill:#1f77b4;fill-opacity:0.73206;stroke:#1f77b4;stroke-opacity:0.73206;" x="237.381695" xlink:href="#C0_0_c845964c6b" y="109.035558"/>
    </g>
    <g clip-path="url(#p5c873058fb)">
     <use style="fill:#1f77b4;fill-opacity:0.739029;stroke:#1f77b4;stroke-opacity:0.739029;" x="301.777614" xlink:href="#C0_0_c845964c6b" y="171.3555"/>
    </g>
    <g clip-path="url(#p5c873058fb)">
     <use style="fill:#1f77b4;fill-opacity:0.751258;stroke:#1f77b4;stroke-opacity:0.751258;" x="283.375808" xlink:href="#C0_0_c845964c6b" y="184.471241"/>
    </g>
    <g clip-path="url(#p5c873058fb)">
     <use style="fill:#1f77b4;fill-opacity:0.756302;stroke:#1f77b4;stroke-opacity:0.756302;" x="256.600218" xlink:href="#C0_0_c845964c6b" y="137.021128"/>
    </g>
    <g clip-path="url(#p5c873058fb)">
     <use style="fill:#1f77b4;fill-opacity:0.757962;stroke:#1f77b4;stroke-opacity:0.757962;" x="249.977316" xlink:href="#C0_0_c845964c6b" y="131.543784"/>
    </g>
    <g clip-path="url(#p5c873058fb)">
     <use style="fill:#1f77b4;fill-opacity:0.760184;stroke:#1f77b4;stroke-opacity:0.760184;" x="255.642604" xlink:href="#C0_0_c845964c6b" y="137.77926"/>
    </g>
    <g clip-path="url(#p5c873058fb)">
     <use style="fill:#1f77b4;fill-opacity:0.76068;stroke:#1f77b4;stroke-opacity:0.76068;" x="287.186189" xlink:href="#C0_0_c845964c6b" y="188.053175"/>
    </g>
    <g clip-path="url(#p5c873058fb)">
     <use style="fill:#1f77b4;fill-opacity:0.762442;stroke:#1f77b4;stroke-opacity:0.762442;" x="265.234089" xlink:href="#C0_0_c845964c6b" y="115.07725"/>
    </g>
    <g clip-path="url(#p5c873058fb)">
     <use style="fill:#1f77b4;fill-opacity:0.769029;stroke:#1f77b4;stroke-opacity:0.769029;" x="321.272681" xlink:href="#C0_0_c845964c6b" y="180.686117"/>
    </g>
    <g clip-path="url(#p5c873058fb)">
     <use style="fill:#1f77b4;fill-opacity:0.772436;stroke:#1f77b4;stroke-opacity:0.772436;" x="285.520241" xlink:href="#C0_0_c845964c6b" y="163.423783"/>
    </g>
    <g clip-path="url(#p5c873058fb)">
     <use style="fill:#1f77b4;fill-opacity:0.774418;stroke:#1f77b4;stroke-opacity:0.774418;" x="251.058687" xlink:href="#C0_0_c845964c6b" y="150.066085"/>
    </g>
    <g clip-path="url(#p5c873058fb)">
     <use style="fill:#1f77b4;fill-opacity:0.775995;stroke:#1f77b4;stroke-opacity:0.775995;" x="289.717368" xlink:href="#C0_0_c845964c6b" y="168.812577"/>
    </g>
    <g clip-path="url(#p5c873058fb)">
     <use style="fill:#1f77b4;fill-opacity:0.78085;stroke:#1f77b4;stroke-opacity:0.78085;" x="236.387836" xlink:href="#C0_0_c845964c6b" y="130.900426"/>
    </g>
    <g clip-path="url(#p5c873058fb)">
     <use style="fill:#1f77b4;fill-opacity:0.782461;stroke:#1f77b4;stroke-opacity:0.782461;" x="280.457707" xlink:href="#C0_0_c845964c6b" y="187.967036"/>
    </g>
    <g clip-path="url(#p5c873058fb)">
     <use style="fill:#1f77b4;fill-opacity:0.784724;stroke:#1f77b4;stroke-opacity:0.784724;" x="297.09646" xlink:href="#C0_0_c845964c6b" y="178.440678"/>
    </g>
    <g clip-path="url(#p5c873058fb)">
     <use style="fill:#1f77b4;fill-opacity:0.786877;stroke:#1f77b4;stroke-opacity:0.786877;" x="280.458817" xlink:href="#C0_0_c845964c6b" y="145.128985"/>
    </g>
    <g clip-path="url(#p5c873058fb)">
     <use style="fill:#1f77b4;fill-opacity:0.798575;stroke:#1f77b4;stroke-opacity:0.798575;" x="283.963018" xlink:href="#C0_0_c845964c6b" y="193.266075"/>
    </g>
    <g clip-path="url(#p5c873058fb)">
     <use style="fill:#1f77b4;fill-opacity:0.800625;stroke:#1f77b4;stroke-opacity:0.800625;" x="254.075744" xlink:href="#C0_0_c845964c6b" y="143.707015"/>
    </g>
    <g clip-path="url(#p5c873058fb)">
     <use style="fill:#1f77b4;fill-opacity:0.800741;stroke:#1f77b4;stroke-opacity:0.800741;" x="279.842268" xlink:href="#C0_0_c845964c6b" y="193.40429"/>
    </g>
    <g clip-path="url(#p5c873058fb)">
     <use style="fill:#1f77b4;fill-opacity:0.803082;stroke:#1f77b4;stroke-opacity:0.803082;" x="221.798769" xlink:href="#C0_0_c845964c6b" y="128.925379"/>
    </g>
    <g clip-path="url(#p5c873058fb)">
     <use style="fill:#1f77b4;fill-opacity:0.806614;stroke:#1f77b4;stroke-opacity:0.806614;" x="162.72034" xlink:href="#C0_0_c845964c6b" y="234.517464"/>
    </g>
    <g clip-path="url(#p5c873058fb)">
     <use style="fill:#1f77b4;fill-opacity:0.813017;stroke:#1f77b4;stroke-opacity:0.813017;" x="302.180202" xlink:href="#C0_0_c845964c6b" y="184.620132"/>
    </g>
    <g clip-path="url(#p5c873058fb)">
     <use style="fill:#1f77b4;fill-opacity:0.817937;stroke:#1f77b4;stroke-opacity:0.817937;" x="227.325111" xlink:href="#C0_0_c845964c6b" y="137.353043"/>
    </g>
    <g clip-path="url(#p5c873058fb)">
     <use style="fill:#1f77b4;fill-opacity:0.831839;stroke:#1f77b4;stroke-opacity:0.831839;" x="249.08291" xlink:href="#C0_0_c845964c6b" y="117.970502"/>
    </g>
    <g clip-path="url(#p5c873058fb)">
     <use style="fill:#1f77b4;fill-opacity:0.83913;stroke:#1f77b4;stroke-opacity:0.83913;" x="271.956338" xlink:href="#C0_0_c845964c6b" y="177.043782"/>
    </g>
    <g clip-path="url(#p5c873058fb)">
     <use style="fill:#1f77b4;fill-opacity:0.840633;stroke:#1f77b4;stroke-opacity:0.840633;" x="273.744197" xlink:href="#C0_0_c845964c6b" y="175.966193"/>
    </g>
    <g clip-path="url(#p5c873058fb)">
     <use style="fill:#1f77b4;fill-opacity:0.8416;stroke:#1f77b4;stroke-opacity:0.8416;" x="294.892463" xlink:href="#C0_0_c845964c6b" y="179.727411"/>
    </g>
    <g clip-path="url(#p5c873058fb)">
     <use style="fill:#1f77b4;fill-opacity:0.842426;stroke:#1f77b4;stroke-opacity:0.842426;" x="234.983896" xlink:href="#C0_0_c845964c6b" y="149.010494"/>
    </g>
    <g clip-path="url(#p5c873058fb)">
     <use style="fill:#1f77b4;fill-opacity:0.844063;stroke:#1f77b4;stroke-opacity:0.844063;" x="252.239469" xlink:href="#C0_0_c845964c6b" y="134.929252"/>
    </g>
    <g clip-path="url(#p5c873058fb)">
     <use style="fill:#1f77b4;fill-opacity:0.854386;stroke:#1f77b4;stroke-opacity:0.854386;" x="291.185741" xlink:href="#C0_0_c845964c6b" y="191.217822"/>
    </g>
    <g clip-path="url(#p5c873058fb)">
     <use style="fill:#1f77b4;fill-opacity:0.857386;stroke:#1f77b4;stroke-opacity:0.857386;" x="232.967168" xlink:href="#C0_0_c845964c6b" y="144.278171"/>
    </g>
    <g clip-path="url(#p5c873058fb)">
     <use style="fill:#1f77b4;fill-opacity:0.864613;stroke:#1f77b4;stroke-opacity:0.864613;" x="275.528036" xlink:href="#C0_0_c845964c6b" y="182.864019"/>
    </g>
    <g clip-path="url(#p5c873058fb)">
     <use style="fill:#1f77b4;fill-opacity:0.865552;stroke:#1f77b4;stroke-opacity:0.865552;" x="287.086584" xlink:href="#C0_0_c845964c6b" y="191.045791"/>
    </g>
    <g clip-path="url(#p5c873058fb)">
     <use style="fill:#1f77b4;fill-opacity:0.868548;stroke:#1f77b4;stroke-opacity:0.868548;" x="307.980769" xlink:href="#C0_0_c845964c6b" y="190.901777"/>
    </g>
    <g clip-path="url(#p5c873058fb)">
     <use style="fill:#1f77b4;fill-opacity:0.871941;stroke:#1f77b4;stroke-opacity:0.871941;" x="287.452062" xlink:href="#C0_0_c845964c6b" y="184.640339"/>
    </g>
    <g clip-path="url(#p5c873058fb)">
     <use style="fill:#1f77b4;fill-opacity:0.877971;stroke:#1f77b4;stroke-opacity:0.877971;" x="245.596547" xlink:href="#C0_0_c845964c6b" y="154.82157"/>
    </g>
    <g clip-path="url(#p5c873058fb)">
     <use style="fill:#1f77b4;fill-opacity:0.88631;stroke:#1f77b4;stroke-opacity:0.88631;" x="268.57535" xlink:href="#C0_0_c845964c6b" y="188.183188"/>
    </g>
    <g clip-path="url(#p5c873058fb)">
     <use style="fill:#1f77b4;fill-opacity:0.895419;stroke:#1f77b4;stroke-opacity:0.895419;" x="241.909657" xlink:href="#C0_0_c845964c6b" y="145.898721"/>
    </g>
    <g clip-path="url(#p5c873058fb)">
     <use style="fill:#1f77b4;fill-opacity:0.914045;stroke:#1f77b4;stroke-opacity:0.914045;" x="233.794388" xlink:href="#C0_0_c845964c6b" y="146.233341"/>
    </g>
    <g clip-path="url(#p5c873058fb)">
     <use style="fill:#1f77b4;fill-opacity:0.915464;stroke:#1f77b4;stroke-opacity:0.915464;" x="259.507814" xlink:href="#C0_0_c845964c6b" y="152.513061"/>
    </g>
    <g clip-path="url(#p5c873058fb)">
     <use style="fill:#1f77b4;fill-opacity:0.917668;stroke:#1f77b4;stroke-opacity:0.917668;" x="265.32183" xlink:href="#C0_0_c845964c6b" y="125.399248"/>
    </g>
    <g clip-path="url(#p5c873058fb)">
     <use style="fill:#1f77b4;fill-opacity:0.923509;stroke:#1f77b4;stroke-opacity:0.923509;" x="267.741531" xlink:href="#C0_0_c845964c6b" y="199.367284"/>
    </g>
    <g clip-path="url(#p5c873058fb)">
     <use style="fill:#1f77b4;fill-opacity:0.925417;stroke:#1f77b4;stroke-opacity:0.925417;" x="244.445076" xlink:href="#C0_0_c845964c6b" y="143.688119"/>
    </g>
    <g clip-path="url(#p5c873058fb)">
     <use style="fill:#1f77b4;fill-opacity:0.926066;stroke:#1f77b4;stroke-opacity:0.926066;" x="234.537956" xlink:href="#C0_0_c845964c6b" y="149.293345"/>
    </g>
    <g clip-path="url(#p5c873058fb)">
     <use style="fill:#1f77b4;fill-opacity:0.930236;stroke:#1f77b4;stroke-opacity:0.930236;" x="253.575949" xlink:href="#C0_0_c845964c6b" y="142.656393"/>
    </g>
    <g clip-path="url(#p5c873058fb)">
     <use style="fill:#1f77b4;fill-opacity:0.93044;stroke:#1f77b4;stroke-opacity:0.93044;" x="220.316748" xlink:href="#C0_0_c845964c6b" y="150.745685"/>
    </g>
    <g clip-path="url(#p5c873058fb)">
     <use style="fill:#1f77b4;fill-opacity:0.935022;stroke:#1f77b4;stroke-opacity:0.935022;" x="247.230496" xlink:href="#C0_0_c845964c6b" y="139.245433"/>
    </g>
    <g clip-path="url(#p5c873058fb)">
     <use style="fill:#1f77b4;fill-opacity:0.936085;stroke:#1f77b4;stroke-opacity:0.936085;" x="258.436027" xlink:href="#C0_0_c845964c6b" y="183.906466"/>
    </g>
    <g clip-path="url(#p5c873058fb)">
     <use style="fill:#1f77b4;fill-opacity:0.945825;stroke:#1f77b4;stroke-opacity:0.945825;" x="243.10637" xlink:href="#C0_0_c845964c6b" y="151.104051"/>
    </g>
    <g clip-path="url(#p5c873058fb)">
     <use style="fill:#1f77b4;fill-opacity:0.96497;stroke:#1f77b4;stroke-opacity:0.96497;" x="267.675906" xlink:href="#C0_0_c845964c6b" y="216.311446"/>
    </g>
    <g clip-path="url(#p5c873058fb)">
     <use style="fill:#1f77b4;fill-opacity:0.976107;stroke:#1f77b4;stroke-opacity:0.976107;" x="266.610904" xlink:href="#C0_0_c845964c6b" y="214.108533"/>
    </g>
    <g clip-path="url(#p5c873058fb)">
     <use style="fill:#1f77b4;fill-opacity:0.992372;stroke:#1f77b4;stroke-opacity:0.992372;" x="271.309222" xlink:href="#C0_0_c845964c6b" y="201.113747"/>
    </g>
    <g clip-path="url(#p5c873058fb)">
     <use style="fill:#1f77b4;fill-opacity:0.996177;stroke:#1f77b4;stroke-opacity:0.996177;" x="264.650549" xlink:href="#C0_0_c845964c6b" y="206.52852"/>
    </g>
    <g clip-path="url(#p5c873058fb)">
     <use style="fill:#1f77b4;stroke:#1f77b4;" x="244.831024" xlink:href="#C0_0_c845964c6b" y="157.799188"/>
    </g>
   </g>
  </g>
 </g>
 <defs>
  <clipPath id="p5c873058fb">
   <rect height="266.112" width="266.112" x="103.104" y="41.472"/>
  </clipPath>
 </defs>
</svg>
